<?xml version="1.0" encoding="UTF-8"?>
<svg xmlns="http://www.w3.org/2000/svg" viewBox="0 0 180 240" width="180" height="240">
  <!-- 海面底色 -->
  <rect width="180" height="240" fill="#E8EDF2"/>

  <!-- 陆地（南部省份） -->
  <g fill="#D4DAE2" stroke="#94A3B8" stroke-width="0.3">
        <path d="M148.24,-10.61 L148.07,-10.65 L148.44,-11.42 L148.36,-11.58 L147.92,-11.21 L147.61,-11.25 L147.05,-11.95 L147.92,-12.20 L147.68,-12.59 L148.03,-12.78 L148.03,-13.07 L147.57,-13.25 L147.55,-13.31 L147.59,-13.36 L147.16,-13.55 L147.13,-13.59 L147.33,-13.65 L147.29,-13.74 L147.32,-13.75 L147.72,-13.92 L148.15,-13.85 L147.93,-13.53 L148.08,-13.14 L148.77,-13.33 L148.97,-13.24 L148.76,-12.78 L148.53,-12.84 L148.49,-12.46 L148.88,-12.06 L148.99,-12.02 L149.60,-12.10 L149.32,-11.76 L149.45,-11.08 L149.74,-11.56 L149.94,-12.53 L149.64,-12.63 L149.33,-13.05 L149.58,-13.37 L150.20,-12.86 L150.64,-13.00 L151.03,-12.68 L151.52,-13.01 L151.31,-13.53 L151.70,-13.45 L152.21,-13.67 L151.71,-14.07 L151.35,-14.52 L150.81,-14.58 L150.73,-14.39 L150.50,-14.96 L149.72,-15.17 L149.79,-15.59 L150.21,-15.57 L150.64,-15.76 L150.51,-16.05 L150.90,-16.27 L151.10,-16.14 L150.97,-15.61 L151.24,-15.42 L151.93,-15.43 L151.82,-16.09 L151.99,-16.63 L152.43,-16.32 L152.98,-16.32 L152.83,-15.44 L153.09,-15.83 L153.39,-15.77 L153.33,-15.51 L153.56,-15.26 L153.34,-14.97 L154.00,-14.93 L154.32,-15.31 L154.07,-15.62 L154.31,-15.81 L154.44,-15.29 L154.36,-15.02 L154.51,-14.59 L155.06,-14.68 L155.23,-15.00 L155.14,-15.27 L155.28,-15.69 L154.78,-15.68 L155.34,-16.05 L155.41,-15.81 L155.48,-15.75 L156.38,-15.26 L156.28,-15.67 L156.71,-15.93 L157.37,-15.91 L157.34,-16.07 L157.33,-16.12 L156.78,-16.47 L156.84,-16.75 L157.31,-16.74 L157.55,-16.90 L156.99,-17.27 L157.12,-17.46 L156.55,-17.64 L156.51,-18.23 L155.60,-17.67 L155.43,-17.41 L155.78,-16.95 L155.77,-16.52 L155.39,-16.37 L155.34,-16.12 L154.91,-16.12 L154.66,-16.61 L154.72,-17.01 L154.40,-17.40 L153.85,-17.33 L153.92,-17.76 L153.25,-17.83 L153.19,-18.17 L153.95,-18.41 L154.57,-18.42 L154.57,-18.74 L154.82,-18.83 L154.84,-20.46 L154.94,-20.65 L155.55,-20.81 L155.85,-21.98 L155.60,-22.21 L155.27,-22.14 L155.12,-22.84 L154.74,-23.16 L154.59,-23.70 L155.22,-24.06 L155.35,-24.72 L156.35,-24.97 L156.69,-24.79 L156.73,-25.21 L157.14,-25.38 L157.33,-25.21 L157.76,-25.22 L158.30,-25.70 L158.21,-25.94 L157.65,-25.74 L157.04,-26.59 L157.04,-26.81 L156.53,-28.22 L156.03,-28.52 L155.28,-28.60 L154.60,-28.36 L154.30,-28.65 L154.75,-28.94 L154.94,-29.53 L155.22,-29.78 L155.72,-29.35 L157.02,-29.39 L157.34,-29.18 L157.44,-28.87 L157.81,-29.07 L157.71,-29.42 L158.13,-30.01 L158.17,-30.41 L159.33,-30.43 L159.43,-30.24 L158.71,-29.71 L158.45,-29.35 L158.49,-29.00 L158.24,-28.67 L157.74,-28.67 L157.21,-28.35 L156.96,-27.57 L157.37,-27.41 L158.23,-27.97 L158.12,-28.15 L158.43,-28.38 L158.86,-28.35 L159.45,-28.70 L159.77,-28.55 L160.24,-28.81 L159.95,-29.41 L160.49,-29.68 L160.38,-30.04 L159.91,-30.07 L160.22,-30.56 L159.87,-30.52 L159.86,-30.87 L159.55,-30.84 L159.35,-31.27 L160.02,-31.48 L160.12,-31.90 L160.15,-31.87 L160.69,-31.90 L161.25,-31.76 L161.53,-32.57 L161.74,-32.62 L161.70,-33.06 L161.91,-33.15 L161.77,-33.74 L162.93,-33.65 L163.05,-33.86 L163.67,-34.32 L163.06,-34.99 L163.03,-35.50 L163.33,-35.59 L162.42,-36.72 L162.39,-37.12 L161.67,-37.01 L161.56,-37.48 L161.12,-37.34 L160.20,-37.34 L160.23,-37.15 L159.79,-37.02 L159.33,-36.46 L159.05,-36.51 L158.86,-36.86 L158.36,-36.75 L158.13,-36.36 L157.12,-36.04 L156.32,-36.12 L156.47,-36.37 L156.02,-36.72 L156.14,-36.84 L155.72,-37.16 L155.44,-37.55 L155.63,-37.63 L155.69,-38.37 L155.50,-38.63 L155.17,-38.66 L155.33,-39.03 L154.86,-39.12 L154.82,-39.54 L155.01,-40.00 L154.60,-40.13 L153.92,-40.04 L153.49,-39.85 L153.50,-39.42 L153.13,-38.50 L152.83,-38.31 L152.60,-38.65 L152.00,-38.48 L151.72,-38.00 L151.20,-37.76 L151.03,-37.37 L150.56,-37.31 L149.75,-37.40 L149.47,-37.54 L149.56,-37.95 L149.16,-37.85 L148.61,-37.98 L148.40,-38.20 L148.01,-38.20 L148.04,-37.95 L147.72,-37.67 L147.21,-37.79 L146.80,-38.66 L147.23,-38.96 L147.27,-39.52 L146.91,-40.05 L146.85,-40.77 L146.38,-42.01 L146.26,-42.76 L145.57,-43.10 L145.33,-43.35 L145.37,-43.97 L145.21,-44.37 L145.72,-44.83 L146.09,-44.95 L146.13,-45.36 L145.76,-45.73 L146.11,-45.94 L146.09,-46.29 L145.60,-46.43 L145.22,-47.08 L145.00,-47.05 L144.74,-46.63 L144.49,-46.70 L143.90,-46.49 L143.83,-46.76 L142.82,-46.54 L142.79,-46.27 L142.30,-46.44 L142.19,-46.82 L142.08,-46.85 L140.92,-46.09 L141.18,-45.79 L141.57,-45.71 L141.42,-45.37 L141.37,-44.67 L140.16,-44.50 L139.71,-44.22 L139.22,-44.35 L138.87,-44.13 L138.96,-43.86 L138.59,-43.71 L138.62,-43.35 L137.58,-43.58 L137.23,-43.27 L136.99,-43.39 L136.65,-43.12 L136.07,-43.08 L135.34,-42.54 L135.35,-42.10 L134.84,-41.49 L134.47,-41.86 L134.23,-41.75 L133.89,-42.05 L133.46,-42.18 L132.89,-43.31 L132.53,-43.48 L132.06,-42.92 L131.81,-43.02 L131.32,-42.51 L130.88,-42.39 L130.62,-42.10 L130.54,-42.44 L129.97,-42.27 L129.93,-42.01 L130.21,-41.85 L130.14,-41.10 L129.60,-40.61 L129.18,-40.56 L129.17,-40.22 L128.86,-40.15 L128.22,-40.31 L128.02,-40.04 L128.19,-39.80 L128.00,-39.61 L127.69,-40.02 L127.43,-40.07 L127.04,-39.59 L127.27,-39.23 L127.18,-38.91 L127.58,-38.68 L127.82,-38.94 L128.10,-38.58 L128.17,-37.77 L128.41,-37.37 L128.14,-37.05 L128.11,-36.37 L128.49,-36.28 L128.45,-36.07 L128.82,-35.93 L128.59,-35.40 L127.48,-34.36 L127.57,-33.86 L126.66,-33.44 L126.34,-32.98 L126.06,-33.15 L125.44,-32.87 L125.08,-32.96 L123.61,-32.53 L123.12,-32.05 L122.80,-31.55 L122.23,-31.02 L122.18,-30.62 L122.33,-30.30 L121.88,-29.72 L121.93,-29.32 L122.42,-28.95 L122.28,-28.14 L122.13,-27.96 L122.75,-27.45 L122.89,-27.06 L123.18,-27.06 L122.86,-26.54 L122.79,-25.92 L122.28,-25.84 L122.28,-26.22 L121.92,-26.33 L121.71,-25.80 L121.28,-25.62 L121.05,-25.21 L120.79,-25.10 L120.50,-24.45 L120.65,-24.06 L120.57,-23.72 L121.03,-23.60 L121.46,-23.74 L121.60,-23.09 L120.49,-22.19 L120.23,-21.76 L120.34,-21.45 L119.87,-21.38 L119.63,-21.03 L119.16,-20.79 L118.80,-20.86 L118.30,-20.70 L117.82,-20.33 L117.81,-19.93 L118.33,-19.44 L117.79,-19.22 L117.55,-18.59 L117.13,-18.62 L117.15,-17.99 L116.86,-17.75 L117.09,-17.08 L116.85,-16.92 L116.81,-16.55 L116.48,-16.29 L116.66,-15.69 L116.35,-15.02 L116.51,-14.42 L116.29,-14.11 L115.89,-14.13 L115.69,-13.52 L114.89,-13.23 L114.94,-12.75 L115.24,-12.35 L115.15,-11.95 L115.45,-11.86 L115.66,-11.49 L115.08,-11.16 L115.63,-10.51 L115.05,-10.50 L115.28,-10.25 L115.45,-10.11 L116.27,-9.84 L116.58,-9.91 L117.14,-9.30 L118.04,-9.27 L118.45,-9.60 L118.77,-9.09 L119.08,-9.03 L119.01,-8.69 L119.57,-8.78 L120.08,-9.07 L120.27,-9.53 L120.60,-9.60 L120.84,-9.20 L120.46,-9.03 L120.39,-8.80 L120.86,-8.40 L120.83,-8.15 L121.15,-7.82 L121.56,-7.89 L121.90,-7.15 L121.79,-6.81 L122.03,-6.63 L122.47,-6.82 L122.79,-7.17 L123.02,-7.04 L123.49,-7.22 L124.66,-7.44 L125.05,-7.18 L124.48,-6.39 L124.46,-5.98 L124.86,-5.51 L125.24,-5.45 L125.54,-5.05 L125.31,-4.86 L125.99,-4.06 L125.91,-3.86 L126.16,-3.54 L126.10,-3.17 L126.36,-3.10 L126.31,-2.43 L126.55,-2.40 L127.00,-1.99 L126.32,-1.41 L126.27,-0.74 L126.51,-0.12 L126.81,-0.02 L126.76,0.72 L126.54,0.82 L126.81,1.55 L127.14,1.55 L127.21,2.13 L127.52,2.61 L127.59,3.31 L128.32,3.82 L128.57,3.75 L129.05,4.02 L129.05,4.75 L130.09,4.65 L130.21,4.88 L131.11,4.83 L131.92,4.50 L131.82,4.03 L132.23,3.87 L132.32,3.20 L132.77,3.07 L133.38,3.22 L134.00,2.27 L133.91,1.99 L134.12,1.30 L134.33,1.18 L135.08,1.21 L135.40,0.99 L135.56,0.54 L136.17,-0.08 L136.65,-0.16 L136.83,-0.47 L136.92,-1.12 L137.60,-1.69 L137.80,-2.18 L138.39,-2.49 L138.82,-2.53 L139.27,-2.97 L138.78,-3.92 L138.46,-3.92 L138.53,-4.49 L138.11,-4.59 L138.48,-5.80 L138.88,-6.25 L139.19,-6.40 L139.39,-6.14 L140.17,-5.62 L141.57,-5.88 L141.45,-6.22 L142.30,-6.74 L143.03,-6.67 L143.50,-6.28 L143.51,-5.62 L144.11,-5.72 L144.80,-6.38 L144.87,-6.95 L144.60,-6.82 L144.51,-7.17 L144.70,-7.45 L145.05,-7.29 L145.84,-8.14 L145.92,-8.50 L144.49,-8.86 L144.46,-9.23 L145.04,-9.47 L145.00,-9.29 L145.52,-9.22 L146.15,-9.53 L146.43,-9.35 L146.75,-9.71 L147.48,-9.53 L148.07,-9.62 L148.05,-9.83 L147.48,-9.92 L147.33,-10.21 L147.61,-10.44 L148.33,-10.30 L148.53,-10.52 L148.53,-10.52 L148.26,-10.54 L148.24,-10.61 Z M141.96,-5.64 L141.56,-5.04 L140.97,-5.34 L140.76,-5.24 L140.90,-4.66 L140.59,-4.54 L141.09,-4.20 L141.34,-4.56 L141.89,-4.70 L142.45,-4.53 L142.65,-4.81 L142.38,-5.56 L141.96,-5.64 Z M153.17,-13.09 L153.56,-12.94 L153.75,-12.66 L154.00,-12.71 L154.19,-13.23 L153.91,-13.14 L153.49,-13.31 L153.20,-13.77 L152.88,-13.54 L152.89,-13.14 L153.17,-13.09 Z M154.33,-17.79 L154.66,-18.25 L154.34,-18.03 L154.33,-17.79 Z M158.53,-23.94 L158.95,-24.22 L158.77,-24.42 L158.47,-24.23 L158.53,-23.94 Z M140.04,-4.41 L140.50,-4.84 L140.07,-4.90 L140.04,-4.41 Z M157.79,-29.38 L158.00,-29.11 L158.26,-29.41 L157.79,-29.38 Z M139.76,-5.54 L139.63,-5.89 L139.13,-6.15 L138.58,-5.93 L138.32,-5.08 L138.48,-4.78 L139.11,-4.62 L139.65,-5.08 L139.76,-5.54 Z M158.03,-23.32 L158.36,-23.46 L157.93,-23.73 L158.03,-23.32 Z M155.00,-23.26 L155.23,-23.55 L154.83,-23.75 L154.60,-23.52 L155.00,-23.26 Z M159.14,-27.18 L159.48,-27.29 L159.53,-27.54 L159.16,-27.48 L159.14,-27.18 Z M155.20,-18.00 L155.32,-17.84 L155.80,-17.87 L155.78,-18.19 L155.20,-18.00 Z M156.24,-28.55 L156.41,-28.40 L156.85,-28.58 L156.62,-28.73 L156.24,-28.55 Z M160.21,-27.86 L160.55,-28.09 L160.40,-28.45 L160.02,-28.06 L160.21,-27.86 Z M162.60,-31.86 L162.95,-32.04 L162.62,-32.41 L162.25,-32.37 L162.16,-32.16 L162.60,-31.86 Z M160.37,-30.57 L160.26,-30.53 L160.51,-30.56 L160.49,-30.62 L160.37,-30.57 Z M155.26,-28.71 L155.82,-28.79 L156.22,-29.05 L156.12,-29.29 L155.73,-29.15 L155.32,-29.28 L155.09,-29.03 L155.26,-28.71 Z"/>
        <path d="M139.64,-58.89 L139.04,-59.14 L138.94,-59.72 L139.11,-59.92 L138.60,-60.40 L138.13,-60.49 L138.04,-60.75 L137.63,-60.88 L136.89,-60.57 L136.25,-60.55 L135.42,-60.80 L134.73,-60.58 L134.31,-60.64 L134.19,-61.07 L133.86,-61.28 L133.45,-61.03 L132.76,-61.00 L132.55,-61.45 L132.62,-61.71 L132.19,-61.77 L131.81,-62.08 L131.82,-62.75 L131.33,-63.32 L131.40,-63.85 L131.05,-63.74 L130.80,-63.44 L130.59,-63.82 L130.10,-63.55 L129.68,-63.68 L129.77,-64.18 L129.61,-64.55 L129.30,-64.68 L128.82,-64.62 L128.38,-64.38 L128.35,-63.97 L127.78,-63.65 L128.31,-63.28 L128.45,-63.03 L128.15,-62.77 L128.19,-62.34 L127.45,-62.00 L126.97,-62.03 L126.74,-61.75 L126.37,-61.65 L125.67,-61.22 L125.41,-60.86 L124.68,-60.79 L124.47,-61.11 L124.06,-60.74 L124.01,-61.02 L123.32,-61.53 L123.62,-62.01 L123.34,-62.15 L123.55,-62.32 L124.49,-63.33 L124.68,-63.22 L125.77,-64.32 L125.95,-64.93 L125.62,-65.27 L125.24,-65.02 L125.21,-65.53 L124.92,-65.44 L124.72,-65.82 L124.33,-66.10 L124.04,-66.07 L123.48,-66.32 L122.99,-66.28 L122.62,-65.98 L122.27,-64.50 L121.99,-64.36 L121.37,-64.35 L120.05,-63.69 L119.39,-63.18 L119.07,-63.15 L118.83,-63.48 L118.25,-63.61 L117.85,-63.51 L117.34,-63.25 L116.94,-62.88 L116.06,-62.48 L115.46,-62.47 L114.69,-62.74 L113.90,-63.22 L113.31,-63.71 L112.90,-63.85 L112.31,-63.75 L111.25,-63.74 L110.90,-63.42 L110.81,-62.64 L110.19,-62.08 L109.59,-61.66 L109.05,-61.52 L108.85,-61.32 L108.48,-61.77 L107.70,-61.72 L107.03,-62.04 L107.07,-61.73 L107.35,-61.62 L107.10,-61.09 L107.49,-60.95 L107.46,-60.14 L106.74,-60.31 L106.75,-60.68 L106.18,-60.54 L105.83,-60.81 L105.28,-60.50 L105.48,-60.27 L105.20,-59.96 L104.78,-60.10 L104.35,-59.77 L104.65,-59.33 L104.96,-59.53 L104.83,-59.74 L105.15,-59.89 L105.27,-59.65 L105.10,-59.19 L104.72,-58.91 L104.41,-58.99 L103.84,-58.76 L103.55,-58.79 L103.28,-58.54 L103.08,-58.79 L102.37,-58.90 L101.83,-58.72 L101.49,-58.42 L100.74,-58.13 L100.17,-58.11 L99.90,-58.30 L99.22,-58.10 L98.85,-58.15 L98.49,-58.56 L97.98,-58.33 L97.91,-57.14 L97.03,-56.94 L95.90,-56.81 L95.60,-56.24 L95.10,-55.95 L94.73,-55.59 L94.62,-55.09 L94.83,-54.57 L94.77,-54.35 L94.96,-53.90 L95.33,-54.09 L95.29,-53.68 L95.53,-53.39 L95.87,-53.51 L95.83,-53.18 L96.05,-52.77 L96.56,-52.87 L96.86,-52.71 L96.69,-52.18 L96.90,-51.98 L96.53,-50.47 L96.64,-50.29 L96.15,-49.76 L96.70,-49.49 L96.87,-49.21 L97.55,-48.96 L97.54,-48.76 L97.06,-48.39 L97.51,-48.07 L97.91,-47.99 L97.92,-47.16 L97.34,-46.85 L97.17,-46.40 L96.76,-46.36 L96.39,-45.91 L96.37,-45.67 L95.96,-45.55 L95.36,-45.58 L95.16,-45.43 L95.50,-44.55 L95.74,-44.30 L95.51,-44.01 L94.92,-44.13 L94.88,-43.87 L94.56,-43.88 L94.33,-43.58 L93.80,-43.73 L93.60,-43.36 L93.36,-43.48 L92.61,-42.95 L92.36,-42.31 L92.66,-42.15 L92.73,-41.48 L92.05,-40.85 L92.02,-40.62 L91.56,-40.00 L91.08,-39.59 L91.09,-39.15 L90.78,-38.71 L90.83,-38.49 L91.29,-38.22 L90.91,-37.87 L90.98,-37.44 L91.34,-37.18 L91.06,-37.01 L91.18,-36.54 L91.61,-36.55 L92.06,-36.38 L92.36,-36.59 L93.89,-36.96 L93.89,-36.55 L93.70,-36.09 L93.89,-35.93 L93.62,-35.19 L92.90,-34.26 L92.82,-33.82 L93.15,-33.85 L93.38,-33.16 L93.79,-32.96 L94.10,-32.38 L94.47,-32.21 L94.08,-31.63 L93.94,-31.23 L93.50,-30.65 L93.69,-30.25 L93.76,-29.10 L94.32,-28.56 L95.20,-28.57 L95.44,-28.26 L96.39,-28.07 L96.00,-27.09 L96.40,-27.12 L96.19,-26.83 L96.14,-26.28 L95.90,-26.28 L95.56,-25.96 L95.74,-25.54 L95.46,-25.00 L95.55,-24.76 L95.01,-24.45 L94.95,-24.10 L94.70,-23.96 L94.85,-23.50 L95.38,-23.86 L96.17,-23.69 L96.32,-23.90 L97.16,-24.19 L97.53,-24.07 L97.76,-23.52 L97.24,-23.17 L96.36,-22.92 L96.52,-22.79 L96.17,-22.57 L95.70,-22.69 L95.33,-22.02 L95.54,-21.65 L95.54,-20.68 L94.94,-20.06 L94.83,-19.42 L94.40,-19.03 L94.32,-18.59 L94.79,-17.62 L95.06,-17.48 L95.09,-16.71 L94.85,-16.70 L94.66,-15.76 L95.28,-15.77 L95.06,-15.47 L95.77,-14.91 L95.55,-14.52 L95.43,-13.93 L95.66,-13.67 L95.83,-13.97 L96.12,-13.94 L96.46,-14.23 L97.25,-14.39 L97.41,-14.21 L98.00,-14.12 L98.37,-14.21 L98.58,-14.63 L99.29,-14.40 L99.80,-14.69 L99.89,-15.04 L100.30,-14.99 L100.97,-15.49 L101.59,-15.15 L101.99,-14.48 L102.81,-14.38 L103.11,-13.93 L103.03,-13.40 L102.59,-13.27 L102.51,-12.83 L103.03,-12.64 L103.03,-12.27 L102.28,-12.05 L102.02,-11.75 L101.65,-11.86 L101.19,-11.79 L100.88,-11.19 L100.60,-10.94 L100.07,-10.90 L100.06,-10.69 L99.43,-10.40 L99.51,-9.60 L99.25,-9.43 L98.86,-8.84 L98.80,-8.20 L98.23,-7.93 L98.13,-7.67 L97.03,-7.55 L97.26,-7.19 L97.98,-7.03 L98.31,-6.78 L98.43,-6.34 L99.09,-6.39 L99.39,-6.18 L99.51,-5.46 L99.78,-5.33 L100.90,-6.13 L101.49,-5.90 L101.89,-6.32 L102.29,-6.40 L102.71,-5.77 L103.06,-6.20 L102.97,-6.67 L103.52,-6.72 L104.01,-6.45 L104.21,-6.61 L104.44,-6.17 L104.71,-6.39 L104.88,-7.25 L105.20,-7.12 L105.87,-7.44 L106.09,-7.33 L106.44,-7.70 L106.72,-7.66 L106.94,-7.32 L107.78,-7.79 L108.57,-7.98 L108.69,-8.21 L109.08,-8.31 L109.62,-8.05 L109.77,-8.48 L110.20,-8.68 L110.88,-8.35 L111.37,-7.70 L111.72,-7.49 L111.87,-6.82 L112.24,-6.86 L112.94,-6.63 L113.13,-5.98 L113.80,-5.99 L114.15,-6.22 L114.77,-6.17 L114.74,-6.41 L114.28,-6.89 L114.10,-7.27 L114.32,-7.73 L113.98,-7.76 L113.84,-8.20 L114.06,-8.48 L113.93,-8.67 L114.20,-9.37 L114.38,-9.44 L114.56,-9.95 L114.98,-9.76 L114.96,-9.45 L115.44,-9.63 L115.21,-9.84 L115.28,-10.25 L115.05,-10.50 L115.63,-10.51 L115.08,-11.16 L115.66,-11.49 L115.45,-11.86 L115.15,-11.95 L115.24,-12.35 L114.94,-12.75 L114.89,-13.23 L115.69,-13.52 L115.89,-14.13 L116.29,-14.11 L116.51,-14.42 L116.35,-15.02 L116.66,-15.69 L116.48,-16.29 L116.81,-16.55 L116.85,-16.92 L117.09,-17.08 L116.86,-17.75 L117.15,-17.99 L117.13,-18.62 L117.55,-18.59 L117.79,-19.22 L118.33,-19.44 L117.81,-19.93 L117.82,-20.33 L118.30,-20.70 L118.80,-20.86 L119.16,-20.79 L119.63,-21.03 L119.87,-21.38 L120.34,-21.45 L120.23,-21.76 L120.49,-22.19 L121.60,-23.09 L121.46,-23.74 L121.03,-23.60 L120.57,-23.72 L120.65,-24.06 L120.50,-24.45 L120.79,-25.10 L121.05,-25.21 L121.28,-25.62 L121.71,-25.80 L121.92,-26.33 L122.28,-26.22 L122.28,-25.84 L122.79,-25.92 L122.86,-26.54 L123.18,-27.06 L122.89,-27.06 L122.75,-27.45 L122.13,-27.96 L122.28,-28.14 L122.42,-28.95 L121.93,-29.32 L121.88,-29.72 L122.33,-30.30 L122.18,-30.62 L122.23,-31.02 L122.80,-31.55 L123.12,-32.05 L123.61,-32.53 L125.08,-32.96 L125.44,-32.87 L126.06,-33.15 L126.34,-32.98 L126.66,-33.44 L127.57,-33.86 L127.48,-34.36 L128.59,-35.40 L128.82,-35.93 L128.45,-36.07 L128.49,-36.28 L128.11,-36.37 L128.14,-37.05 L128.41,-37.37 L128.17,-37.77 L128.10,-38.58 L127.82,-38.94 L127.58,-38.68 L127.18,-38.91 L127.27,-39.23 L127.04,-39.59 L127.43,-40.07 L127.69,-40.02 L128.00,-39.61 L128.19,-39.80 L128.02,-40.04 L128.22,-40.31 L128.86,-40.15 L129.17,-40.22 L129.18,-40.56 L129.60,-40.61 L130.14,-41.10 L130.21,-41.85 L129.93,-42.01 L129.97,-42.27 L130.54,-42.44 L130.62,-42.10 L130.88,-42.39 L131.32,-42.51 L131.81,-43.02 L132.06,-42.92 L132.53,-43.48 L132.89,-43.31 L133.46,-42.18 L133.89,-42.05 L134.23,-41.75 L134.47,-41.86 L134.84,-41.49 L135.35,-42.10 L135.34,-42.54 L136.07,-43.08 L136.65,-43.12 L136.99,-43.39 L137.23,-43.27 L137.58,-43.58 L138.62,-43.35 L138.59,-43.71 L138.96,-43.86 L138.87,-44.13 L139.22,-44.35 L139.71,-44.22 L140.16,-44.50 L141.37,-44.67 L141.42,-45.37 L141.57,-45.71 L141.18,-45.79 L140.92,-46.09 L142.08,-46.85 L142.19,-46.82 L142.68,-47.24 L142.42,-47.86 L142.17,-48.06 L142.43,-48.30 L142.62,-48.90 L141.98,-49.10 L142.15,-49.29 L141.96,-49.74 L142.13,-50.40 L142.13,-50.40 L142.13,-51.10 L141.86,-51.34 L141.45,-52.54 L140.77,-52.68 L140.45,-53.69 L139.66,-53.53 L140.00,-53.95 L139.34,-54.43 L139.01,-54.40 L138.81,-54.68 L138.81,-54.68 L138.62,-54.56 L138.30,-55.16 L138.40,-55.39 L137.99,-55.69 L138.07,-56.20 L137.89,-56.41 L138.04,-56.87 L138.37,-56.94 L138.42,-57.74 L139.06,-57.67 L139.48,-57.82 L139.36,-58.00 L139.77,-58.33 L139.64,-58.89 Z"/>
        <path d="M74.32,-8.11 L74.42,-8.44 L75.37,-9.21 L75.64,-9.16 L75.83,-9.41 L75.92,-10.15 L75.33,-10.54 L75.35,-10.82 L75.71,-11.23 L75.67,-11.55 L75.94,-12.10 L76.04,-12.93 L76.67,-12.96 L76.77,-12.68 L77.27,-12.65 L77.40,-12.85 L77.92,-13.03 L78.45,-12.49 L78.75,-12.96 L78.91,-12.60 L80.02,-12.30 L80.71,-12.48 L81.05,-12.39 L81.61,-11.85 L81.63,-11.22 L81.92,-10.93 L81.93,-10.50 L82.30,-10.37 L82.33,-9.81 L83.32,-9.82 L83.64,-10.09 L84.03,-10.02 L84.59,-10.15 L84.75,-10.70 L84.43,-11.31 L84.69,-11.91 L84.31,-12.49 L84.38,-12.78 L85.01,-13.10 L84.57,-13.64 L84.21,-13.72 L83.57,-13.54 L83.24,-13.67 L83.11,-14.63 L83.50,-14.65 L83.85,-14.18 L83.96,-14.50 L84.33,-14.76 L84.79,-14.78 L85.48,-15.11 L85.67,-15.44 L86.04,-15.46 L85.90,-15.80 L86.52,-16.08 L87.04,-16.50 L87.28,-16.55 L87.94,-16.29 L87.97,-15.77 L88.27,-15.83 L88.60,-15.33 L88.96,-15.32 L89.41,-14.86 L89.73,-15.03 L90.32,-14.96 L90.78,-14.70 L90.84,-14.29 L91.13,-14.52 L91.85,-14.59 L91.92,-14.78 L92.63,-14.90 L92.74,-14.58 L93.28,-14.53 L93.54,-14.90 L93.94,-15.09 L94.04,-15.71 L94.66,-15.76 L94.85,-16.70 L95.09,-16.71 L95.06,-17.48 L94.79,-17.62 L94.32,-18.59 L94.40,-19.03 L94.83,-19.42 L94.94,-20.06 L95.54,-20.68 L95.54,-21.65 L95.33,-22.02 L95.70,-22.69 L96.17,-22.57 L96.52,-22.79 L96.36,-22.92 L97.24,-23.17 L97.76,-23.52 L97.53,-24.07 L97.16,-24.19 L96.32,-23.90 L96.17,-23.69 L95.38,-23.86 L94.85,-23.50 L94.70,-23.96 L94.95,-24.10 L95.01,-24.45 L95.55,-24.76 L95.46,-25.00 L95.74,-25.54 L95.56,-25.96 L95.90,-26.28 L96.14,-26.28 L96.19,-26.83 L96.40,-27.12 L96.00,-27.09 L96.39,-28.07 L95.44,-28.26 L95.20,-28.57 L94.32,-28.56 L93.76,-29.10 L93.69,-30.25 L93.50,-30.65 L93.94,-31.23 L94.08,-31.63 L94.47,-32.21 L94.10,-32.38 L93.79,-32.96 L93.38,-33.16 L93.15,-33.85 L92.82,-33.82 L92.90,-34.26 L93.62,-35.19 L93.89,-35.93 L93.70,-36.09 L93.89,-36.55 L93.89,-36.96 L92.36,-36.59 L92.06,-36.38 L91.61,-36.55 L91.18,-36.54 L91.06,-37.01 L91.34,-37.18 L90.98,-37.44 L90.91,-37.87 L91.29,-38.22 L90.83,-38.49 L90.78,-38.71 L91.09,-39.15 L91.08,-39.59 L91.56,-40.00 L92.02,-40.62 L92.05,-40.85 L92.73,-41.48 L92.66,-42.15 L92.36,-42.31 L92.61,-42.95 L93.36,-43.48 L93.60,-43.36 L93.80,-43.73 L94.33,-43.58 L94.56,-43.88 L94.88,-43.87 L94.92,-44.13 L95.51,-44.01 L95.74,-44.30 L95.50,-44.55 L95.16,-45.43 L95.36,-45.58 L95.96,-45.55 L96.37,-45.67 L96.39,-45.91 L96.76,-46.36 L97.17,-46.40 L97.34,-46.85 L97.92,-47.16 L97.91,-47.99 L97.51,-48.07 L97.06,-48.39 L97.54,-48.76 L97.55,-48.96 L96.87,-49.21 L96.70,-49.49 L96.15,-49.76 L96.64,-50.29 L96.53,-50.47 L96.90,-51.98 L96.69,-52.18 L96.86,-52.71 L96.56,-52.87 L96.05,-52.77 L95.83,-53.18 L95.87,-53.51 L95.53,-53.39 L95.29,-53.68 L95.33,-54.09 L94.96,-53.90 L94.77,-54.35 L94.83,-54.57 L94.62,-55.09 L94.16,-54.90 L93.93,-55.00 L93.99,-55.29 L93.68,-55.22 L93.29,-55.72 L92.86,-55.62 L92.58,-55.24 L92.30,-55.72 L92.02,-55.42 L91.96,-55.83 L91.67,-56.43 L91.97,-56.72 L91.98,-57.05 L91.55,-57.04 L91.10,-57.32 L91.34,-58.03 L91.65,-58.21 L91.79,-58.81 L92.39,-58.87 L92.64,-59.45 L91.82,-60.18 L91.33,-60.28 L92.17,-60.63 L92.47,-60.89 L92.10,-61.50 L91.85,-61.59 L91.67,-62.04 L91.07,-61.85 L90.44,-61.95 L90.37,-62.21 L90.56,-62.51 L90.48,-62.95 L90.74,-63.40 L90.70,-63.84 L88.64,-62.24 L87.58,-61.06 L87.00,-60.51 L86.57,-59.87 L86.18,-59.47 L85.70,-59.59 L85.47,-59.35 L85.25,-60.27 L85.01,-60.29 L84.12,-59.74 L83.72,-61.20 L83.75,-61.35 L84.70,-62.14 L84.92,-63.00 L84.38,-62.57 L84.06,-62.02 L83.87,-62.13 L83.84,-62.94 L83.53,-63.12 L83.18,-63.12 L82.46,-62.60 L82.41,-62.01 L81.82,-61.62 L81.62,-61.65 L81.41,-61.14 L80.95,-61.04 L80.84,-61.21 L80.12,-61.38 L79.80,-61.13 L79.34,-61.44 L78.71,-61.49 L78.55,-61.10 L77.96,-60.48 L77.58,-60.52 L77.14,-60.22 L77.04,-60.43 L77.27,-60.96 L76.53,-61.30 L76.64,-61.77 L76.20,-61.49 L75.95,-61.74 L75.23,-61.77 L75.01,-62.05 L74.75,-62.00 L74.86,-62.68 L74.15,-63.07 L73.58,-63.27 L73.70,-63.66 L73.27,-63.70 L72.99,-63.91 L72.99,-63.91 L72.59,-63.92 L72.05,-64.40 L71.49,-64.61 L71.13,-64.49 L71.13,-64.49 L70.94,-64.28 L70.55,-64.27 L70.55,-64.27 L69.34,-64.33 L69.05,-64.68 L68.50,-64.59 L68.09,-64.72 L67.64,-64.53 L67.52,-64.94 L67.10,-64.88 L66.98,-65.16 L66.30,-65.61 L66.04,-65.92 L63.81,-66.01 L62.73,-66.17 L62.67,-66.70 L61.90,-66.86 L60.80,-66.72 L60.89,-66.08 L60.43,-65.85 L59.78,-66.33 L59.25,-66.08 L58.52,-66.15 L58.16,-66.09 L58.09,-65.70 L58.79,-65.36 L58.37,-65.06 L58.17,-64.53 L58.59,-64.35 L58.71,-63.83 L59.25,-63.74 L59.70,-63.04 L58.85,-62.35 L58.26,-62.13 L57.84,-62.35 L57.62,-61.82 L56.83,-61.48 L56.48,-61.86 L56.09,-61.79 L55.96,-62.17 L55.22,-62.72 L54.59,-62.79 L54.09,-63.19 L53.14,-62.97 L52.27,-63.02 L51.92,-62.91 L51.51,-63.03 L50.55,-62.84 L50.30,-62.57 L50.35,-62.09 L49.87,-61.92 L49.73,-61.51 L49.90,-61.29 L49.34,-61.12 L49.21,-61.40 L48.43,-61.45 L48.22,-61.20 L47.77,-61.41 L47.48,-60.61 L47.25,-60.68 L47.16,-60.17 L46.89,-60.37 L46.92,-59.91 L46.70,-60.00 L46.73,-59.52 L46.20,-59.09 L46.44,-58.63 L45.94,-58.60 L46.03,-57.68 L45.61,-57.32 L45.03,-57.01 L45.22,-56.78 L45.07,-56.33 L45.21,-55.91 L44.76,-55.88 L44.85,-55.52 L45.61,-55.30 L45.69,-55.04 L45.42,-54.74 L45.40,-54.44 L45.07,-54.06 L44.80,-53.29 L44.91,-52.41 L44.86,-52.15 L45.47,-51.82 L45.42,-51.55 L44.98,-51.22 L45.18,-51.00 L44.35,-50.61 L44.44,-50.19 L44.80,-50.43 L44.97,-50.29 L45.55,-50.44 L45.69,-50.00 L45.20,-49.55 L45.21,-49.07 L45.06,-48.74 L45.10,-47.96 L45.36,-47.75 L45.15,-47.36 L45.22,-47.09 L45.67,-46.70 L45.85,-46.88 L46.41,-46.60 L46.20,-46.45 L45.90,-45.75 L45.88,-45.22 L45.63,-44.80 L45.46,-44.07 L45.86,-44.36 L46.31,-44.05 L46.14,-43.75 L45.69,-43.55 L45.50,-43.20 L45.71,-42.23 L45.98,-41.91 L45.83,-41.30 L46.30,-40.80 L46.18,-40.64 L46.69,-40.67 L47.29,-40.18 L47.14,-40.11 L47.28,-39.62 L47.08,-39.16 L47.19,-38.95 L46.59,-38.77 L45.51,-37.95 L45.48,-37.39 L44.90,-37.32 L44.45,-37.68 L44.07,-37.32 L43.81,-37.65 L43.81,-37.33 L43.40,-36.43 L42.78,-36.38 L42.87,-35.96 L42.13,-35.69 L41.92,-35.33 L41.33,-35.00 L41.54,-34.52 L41.03,-33.92 L40.09,-33.68 L41.01,-32.94 L41.70,-32.95 L41.70,-32.95 L41.68,-33.26 L42.39,-33.64 L42.65,-33.90 L43.67,-34.10 L43.38,-33.51 L44.06,-33.49 L44.60,-34.02 L44.84,-34.39 L45.10,-34.20 L45.85,-34.28 L46.10,-34.43 L46.70,-34.44 L46.97,-34.05 L47.31,-34.24 L47.12,-33.52 L47.46,-33.35 L47.58,-33.63 L47.81,-33.41 L48.18,-32.19 L46.92,-31.59 L47.10,-31.26 L47.46,-31.63 L47.70,-31.43 L47.74,-31.02 L47.57,-30.75 L47.84,-30.03 L47.90,-29.97 L48.18,-29.88 L48.63,-30.11 L48.32,-29.78 L47.90,-29.97 L47.83,-30.03 L47.46,-30.15 L47.05,-30.14 L46.62,-29.71 L46.06,-29.42 L45.31,-29.48 L45.55,-29.07 L45.84,-28.90 L46.06,-29.04 L46.44,-28.39 L46.62,-27.67 L46.34,-27.51 L46.39,-27.24 L46.14,-27.00 L46.34,-26.81 L45.69,-26.42 L45.44,-25.68 L45.18,-25.43 L45.33,-25.08 L45.75,-25.02 L46.02,-24.73 L46.22,-24.88 L46.99,-25.01 L47.25,-25.28 L46.95,-24.46 L47.35,-23.47 L47.75,-23.25 L47.63,-22.91 L47.07,-22.96 L47.10,-22.46 L47.41,-22.18 L47.74,-21.83 L48.24,-22.09 L48.54,-22.07 L49.03,-22.37 L49.18,-22.04 L50.03,-21.74 L49.83,-21.36 L49.65,-21.41 L49.50,-21.00 L49.56,-20.55 L50.44,-20.66 L50.56,-20.39 L50.90,-20.52 L51.05,-20.89 L50.84,-21.57 L50.59,-21.82 L50.93,-22.30 L51.46,-22.16 L51.82,-22.90 L51.88,-23.34 L52.58,-23.99 L53.21,-23.67 L53.94,-23.70 L53.96,-23.30 L53.58,-22.40 L53.96,-22.07 L54.68,-22.17 L54.81,-22.51 L55.54,-21.97 L55.62,-21.43 L56.34,-21.58 L56.84,-22.82 L57.53,-23.53 L57.95,-23.81 L58.13,-23.67 L58.68,-24.40 L58.75,-24.95 L59.08,-25.09 L59.37,-25.50 L59.71,-25.22 L60.02,-25.32 L60.53,-25.06 L60.75,-25.28 L60.68,-24.81 L60.93,-24.56 L61.75,-24.65 L62.84,-24.98 L62.70,-25.35 L62.89,-25.42 L62.89,-25.93 L63.20,-26.06 L63.57,-25.77 L63.56,-25.53 L64.43,-25.21 L65.69,-25.17 L65.64,-24.87 L65.89,-24.71 L66.42,-24.82 L66.58,-24.28 L66.35,-24.22 L66.38,-23.86 L66.21,-23.51 L66.29,-22.90 L66.06,-22.71 L66.31,-22.49 L65.97,-22.38 L65.48,-21.34 L65.91,-20.94 L66.14,-20.37 L66.57,-20.26 L66.62,-20.48 L67.14,-20.83 L67.46,-20.83 L67.53,-20.56 L68.34,-20.60 L68.62,-20.32 L68.06,-20.17 L68.16,-19.36 L67.70,-19.06 L66.74,-18.80 L66.75,-17.98 L67.11,-17.51 L66.91,-17.10 L66.95,-16.63 L66.43,-15.56 L65.71,-14.90 L65.43,-14.94 L64.94,-14.25 L64.57,-14.05 L64.67,-13.31 L63.47,-12.70 L63.31,-12.05 L62.96,-11.42 L63.15,-10.67 L63.58,-10.08 L64.54,-10.34 L64.55,-11.32 L64.96,-11.40 L65.60,-11.75 L65.82,-12.10 L66.38,-12.59 L66.88,-12.09 L67.37,-12.13 L67.44,-12.34 L68.08,-11.96 L67.88,-11.46 L68.42,-11.18 L68.35,-10.86 L68.06,-10.72 L68.08,-10.41 L68.45,-10.16 L68.21,-9.77 L68.23,-9.38 L68.55,-8.73 L68.36,-7.98 L68.04,-7.53 L68.25,-7.29 L68.76,-7.32 L69.05,-6.99 L69.52,-7.07 L69.71,-7.57 L70.27,-7.50 L70.23,-7.84 L70.53,-8.33 L70.97,-8.64 L71.77,-8.61 L72.10,-8.43 L72.67,-8.45 L72.74,-8.29 L73.32,-8.28 L73.55,-8.43 L74.32,-8.11 Z M47.90,-29.97 L47.84,-30.03 L47.83,-30.03 L47.90,-29.97 Z"/>
        <path d="M90.57,19.47 L90.95,19.29 L90.96,18.47 L91.19,18.35 L91.06,18.08 L91.30,17.98 L91.74,17.24 L91.70,17.00 L91.27,16.95 L91.10,17.33 L90.72,17.30 L91.34,16.60 L91.73,16.54 L91.98,16.17 L92.49,15.96 L92.24,14.75 L91.83,13.87 L92.42,13.75 L92.68,14.33 L92.76,14.52 L93.16,15.31 L93.73,15.90 L93.86,16.77 L94.12,16.96 L94.74,16.48 L94.76,16.43 L94.99,16.22 L95.58,16.29 L96.11,16.20 L96.25,15.96 L96.90,15.86 L97.00,15.69 L97.60,15.75 L97.71,15.90 L98.36,15.64 L98.65,15.38 L99.28,15.22 L99.77,15.36 L100.24,16.09 L100.29,16.78 L100.61,17.00 L101.06,16.70 L101.72,16.53 L101.90,16.18 L101.75,15.84 L101.26,15.67 L101.17,15.42 L101.64,14.82 L101.39,14.57 L100.70,14.64 L101.25,14.30 L101.51,14.26 L101.62,13.81 L102.55,13.42 L102.76,13.19 L103.19,13.45 L103.03,13.89 L102.96,14.68 L103.12,14.89 L103.15,15.44 L104.42,15.33 L104.62,15.91 L105.01,15.79 L105.07,15.00 L105.25,14.74 L106.25,14.00 L106.08,13.87 L106.40,13.63 L106.64,13.19 L107.47,13.04 L107.85,13.35 L107.85,12.86 L108.34,12.78 L108.27,13.31 L109.21,13.24 L109.41,13.31 L109.53,14.02 L109.87,14.33 L110.39,14.33 L110.83,14.18 L111.93,14.68 L111.82,14.32 L112.28,13.57 L111.57,13.55 L111.87,13.20 L112.02,12.75 L112.76,12.34 L113.20,12.59 L113.88,12.68 L114.18,12.95 L114.27,13.72 L114.61,13.77 L115.19,13.22 L115.70,13.03 L116.05,13.05 L116.39,12.77 L117.02,12.58 L117.53,12.88 L117.92,12.68 L118.96,11.74 L119.17,11.62 L119.63,11.41 L120.47,11.76 L121.19,11.57 L121.77,11.64 L122.19,10.91 L122.53,10.72 L122.32,10.26 L122.42,9.91 L122.26,9.68 L122.42,9.41 L123.47,9.15 L123.85,8.72 L124.31,8.53 L124.96,8.69 L125.12,8.26 L124.88,8.21 L124.71,7.46 L125.66,6.34 L125.65,6.34 L125.68,6.00 L125.69,5.99 L125.91,5.68 L125.83,5.41 L126.25,5.10 L126.63,5.35 L127.12,5.40 L127.48,4.99 L127.91,5.03 L129.05,4.75 L129.05,4.02 L128.57,3.75 L128.32,3.82 L127.59,3.31 L127.52,2.61 L127.21,2.13 L127.14,1.55 L126.81,1.55 L126.54,0.82 L126.76,0.72 L126.81,-0.02 L126.51,-0.12 L126.27,-0.74 L126.32,-1.41 L127.00,-1.99 L126.55,-2.40 L126.31,-2.43 L126.36,-3.10 L126.10,-3.17 L126.16,-3.54 L125.91,-3.86 L125.99,-4.06 L125.31,-4.86 L125.54,-5.05 L125.24,-5.45 L124.86,-5.51 L124.46,-5.98 L124.48,-6.39 L125.05,-7.18 L124.66,-7.44 L123.49,-7.22 L123.02,-7.04 L122.79,-7.17 L122.47,-6.82 L122.03,-6.63 L121.79,-6.81 L121.90,-7.15 L121.56,-7.89 L121.15,-7.82 L120.83,-8.15 L120.86,-8.40 L120.39,-8.80 L120.46,-9.03 L120.84,-9.20 L120.60,-9.60 L120.27,-9.53 L120.08,-9.07 L119.57,-8.78 L119.01,-8.69 L119.08,-9.03 L118.77,-9.09 L118.45,-9.60 L118.04,-9.27 L117.14,-9.30 L116.58,-9.91 L116.27,-9.84 L115.45,-10.11 L115.28,-10.25 L115.21,-9.84 L115.44,-9.63 L114.96,-9.45 L114.98,-9.76 L114.56,-9.95 L114.38,-9.44 L114.20,-9.37 L113.93,-8.67 L114.06,-8.48 L113.84,-8.20 L113.98,-7.76 L114.32,-7.73 L114.10,-7.27 L114.28,-6.89 L114.74,-6.41 L114.77,-6.17 L114.15,-6.22 L113.80,-5.99 L113.13,-5.98 L112.94,-6.63 L112.24,-6.86 L111.87,-6.82 L111.72,-7.49 L111.37,-7.70 L110.88,-8.35 L110.20,-8.68 L109.77,-8.48 L109.62,-8.05 L109.08,-8.31 L108.69,-8.21 L108.57,-7.98 L107.78,-7.79 L106.94,-7.32 L106.72,-7.66 L106.44,-7.70 L106.09,-7.33 L105.87,-7.44 L105.20,-7.12 L104.88,-7.25 L104.71,-6.39 L104.44,-6.17 L104.21,-6.61 L104.01,-6.45 L103.52,-6.72 L102.97,-6.67 L103.06,-6.20 L102.71,-5.77 L102.29,-6.40 L101.89,-6.32 L101.49,-5.90 L100.90,-6.13 L99.78,-5.33 L99.51,-5.46 L99.39,-6.18 L99.09,-6.39 L98.43,-6.34 L98.31,-6.78 L97.98,-7.03 L97.26,-7.19 L97.03,-7.55 L98.13,-7.67 L98.23,-7.93 L98.80,-8.20 L98.86,-8.84 L99.25,-9.43 L99.51,-9.60 L99.43,-10.40 L100.06,-10.69 L100.07,-10.90 L100.60,-10.94 L100.88,-11.19 L101.19,-11.79 L101.65,-11.86 L102.02,-11.75 L102.28,-12.05 L103.03,-12.27 L103.03,-12.64 L102.51,-12.83 L102.59,-13.27 L103.03,-13.40 L103.11,-13.93 L102.81,-14.38 L101.99,-14.48 L101.59,-15.15 L100.97,-15.49 L100.30,-14.99 L99.89,-15.04 L99.80,-14.69 L99.29,-14.40 L98.58,-14.63 L98.37,-14.21 L98.00,-14.12 L97.41,-14.21 L97.25,-14.39 L96.46,-14.23 L96.12,-13.94 L95.83,-13.97 L95.66,-13.67 L95.43,-13.93 L95.55,-14.52 L95.77,-14.91 L95.06,-15.47 L95.28,-15.77 L94.66,-15.76 L94.04,-15.71 L93.94,-15.09 L93.54,-14.90 L93.28,-14.53 L92.74,-14.58 L92.63,-14.90 L91.92,-14.78 L91.85,-14.59 L91.13,-14.52 L90.84,-14.29 L90.78,-14.70 L90.32,-14.96 L89.73,-15.03 L89.41,-14.86 L88.96,-15.32 L88.60,-15.33 L88.27,-15.83 L87.97,-15.77 L87.94,-16.29 L87.28,-16.55 L87.04,-16.50 L86.52,-16.08 L85.90,-15.80 L86.04,-15.46 L85.67,-15.44 L85.48,-15.11 L84.79,-14.78 L84.33,-14.76 L83.96,-14.50 L83.85,-14.18 L83.50,-14.65 L83.11,-14.63 L83.24,-13.67 L83.57,-13.54 L84.21,-13.72 L84.57,-13.64 L85.01,-13.10 L84.38,-12.78 L84.31,-12.49 L84.69,-11.91 L84.43,-11.31 L84.75,-10.70 L84.59,-10.15 L84.03,-10.02 L83.64,-10.09 L83.32,-9.82 L82.33,-9.81 L82.30,-10.37 L81.93,-10.50 L81.92,-10.93 L81.63,-11.22 L81.61,-11.85 L81.05,-12.39 L80.71,-12.48 L80.02,-12.30 L78.91,-12.60 L78.75,-12.96 L78.45,-12.49 L77.92,-13.03 L77.40,-12.85 L77.27,-12.65 L76.77,-12.68 L76.67,-12.96 L76.04,-12.93 L75.94,-12.10 L75.67,-11.55 L75.71,-11.23 L75.35,-10.82 L75.33,-10.54 L75.92,-10.15 L75.83,-9.41 L75.64,-9.16 L75.37,-9.21 L74.42,-8.44 L74.32,-8.11 L73.66,-7.90 L73.42,-7.52 L73.57,-7.09 L73.30,-6.90 L73.40,-6.53 L73.77,-6.35 L74.14,-5.86 L74.16,-5.52 L73.90,-5.13 L74.33,-4.82 L74.67,-4.25 L74.69,-3.73 L74.34,-3.25 L73.96,-3.08 L73.92,-2.83 L73.62,-2.91 L73.14,-2.45 L72.76,-2.51 L72.70,-1.96 L72.86,-1.82 L72.78,-1.23 L73.23,-0.16 L73.44,0.10 L73.13,0.58 L72.52,0.54 L72.43,1.01 L72.08,1.20 L72.21,1.80 L72.06,2.08 L71.12,1.90 L70.71,1.90 L70.71,1.90 L70.41,1.79 L70.12,2.27 L70.06,2.96 L70.53,3.04 L69.99,3.69 L69.99,3.91 L69.36,3.89 L68.63,4.05 L68.56,5.07 L68.01,5.79 L67.71,5.76 L67.53,6.53 L67.60,6.78 L67.32,7.17 L67.46,7.56 L67.21,7.78 L67.34,8.26 L67.59,8.59 L67.54,9.06 L67.35,9.30 L67.47,9.99 L67.73,10.16 L68.06,10.08 L68.07,10.48 L67.60,10.82 L67.75,10.98 L67.32,11.23 L67.44,11.55 L67.27,12.09 L65.79,13.63 L65.44,13.76 L64.73,13.66 L64.09,13.83 L64.42,14.20 L64.06,14.71 L63.45,14.90 L63.04,14.84 L62.95,15.12 L62.38,15.09 L62.40,15.33 L61.49,15.50 L61.13,15.40 L60.83,15.71 L60.97,16.13 L60.73,16.34 L60.74,16.72 L60.18,16.57 L60.44,16.98 L60.42,17.76 L60.74,17.84 L60.83,18.19 L61.23,18.70 L60.93,18.79 L60.57,18.56 L60.18,19.06 L59.74,19.38 L60.08,19.90 L59.56,20.16 L59.23,20.01 L59.28,19.78 L58.80,19.65 L58.25,20.23 L57.73,19.72 L57.28,19.52 L56.90,19.99 L56.58,19.65 L56.35,20.13 L56.75,20.42 L56.62,20.73 L56.70,21.62 L56.63,22.05 L56.86,22.14 L56.86,22.14 L56.90,22.45 L56.90,22.45 L57.04,22.95 L56.47,23.01 L55.97,22.69 L55.90,22.96 L55.27,23.07 L55.27,23.07 L55.14,23.03 L55.14,23.03 L54.97,22.88 L54.25,22.85 L53.97,23.21 L53.43,23.35 L52.89,23.08 L52.31,23.48 L52.26,24.30 L52.01,25.40 L51.72,25.58 L51.72,25.58 L51.20,25.75 L50.63,25.74 L50.55,25.38 L50.17,25.97 L50.30,26.63 L50.66,27.35 L50.62,27.72 L50.98,27.84 L51.78,27.87 L51.88,28.01 L51.51,28.71 L50.47,28.77 L50.33,28.91 L50.40,30.23 L49.45,31.21 L49.45,31.96 L49.25,33.47 L49.35,34.20 L49.84,35.16 L50.04,35.76 L50.19,36.83 L50.71,36.89 L50.93,37.34 L50.91,37.70 L51.20,38.27 L51.72,38.42 L51.79,38.94 L51.47,39.22 L51.43,39.50 L52.01,40.15 L51.94,41.02 L52.15,41.30 L52.83,40.84 L53.77,40.79 L54.14,41.22 L54.68,41.22 L55.23,40.87 L56.04,40.89 L56.59,40.79 L56.96,40.42 L57.40,40.43 L57.69,40.22 L58.10,39.53 L58.63,39.02 L58.73,38.45 L58.19,37.36 L58.05,36.63 L57.83,36.19 L57.25,36.29 L57.05,36.16 L57.21,35.63 L57.06,34.70 L56.61,34.43 L56.36,34.36 L55.74,34.45 L55.12,34.23 L54.84,33.88 L54.81,32.90 L55.07,32.67 L55.10,32.15 L55.46,32.52 L55.54,32.21 L56.04,31.68 L57.03,31.34 L57.37,30.62 L57.67,30.67 L58.20,30.33 L58.55,30.47 L59.53,30.34 L59.88,30.08 L60.44,29.29 L61.03,28.72 L61.32,28.61 L62.30,28.69 L62.73,28.60 L63.84,27.91 L64.57,27.73 L65.29,27.70 L66.47,27.40 L66.40,27.86 L66.13,27.78 L66.20,28.17 L66.50,28.13 L67.21,27.63 L67.53,27.29 L68.18,27.09 L68.71,27.23 L69.00,27.05 L69.41,27.19 L69.94,26.91 L70.36,27.11 L70.65,26.92 L70.82,26.26 L71.28,26.05 L71.89,26.03 L72.29,26.39 L72.05,26.64 L72.88,26.38 L73.45,26.08 L73.78,26.12 L74.35,25.79 L74.04,25.53 L73.58,25.41 L73.60,24.95 L74.44,24.39 L75.51,24.04 L76.10,24.09 L76.15,24.66 L76.57,24.77 L76.59,25.04 L77.80,24.99 L78.46,24.68 L78.59,24.08 L78.78,23.94 L79.33,24.13 L79.74,24.47 L80.92,24.42 L81.33,23.86 L82.45,22.65 L82.97,22.65 L83.53,23.48 L83.91,23.55 L84.54,23.21 L85.15,22.26 L85.22,21.66 L84.99,21.29 L85.13,20.82 L85.57,20.41 L85.62,21.08 L86.16,21.66 L86.25,22.01 L87.14,23.01 L87.48,23.19 L88.04,22.78 L88.15,22.21 L89.33,21.69 L89.52,21.31 L90.24,20.98 L90.66,20.96 L90.52,20.61 L90.52,20.23 L90.31,19.89 L90.35,19.50 L90.57,19.47 Z M127.27,6.11 L126.83,5.85 L126.42,6.08 L126.50,6.30 L127.29,6.35 L127.54,6.51 L127.87,6.42 L128.32,6.63 L128.52,6.51 L128.52,5.87 L128.38,5.61 L128.00,5.87 L127.63,5.72 L127.32,6.05 L127.27,6.11 Z M83.10,24.62 L83.34,24.27 L82.96,24.22 L82.35,24.63 L81.73,24.84 L81.54,25.29 L81.84,25.43 L82.32,25.37 L81.80,26.00 L82.27,26.54 L82.72,26.26 L82.52,26.03 L82.76,25.54 L82.59,25.21 L82.89,24.66 L83.10,24.62 Z M79.68,26.33 L80.03,26.25 L80.12,25.94 L80.64,26.08 L81.11,25.69 L80.83,25.36 L81.12,25.24 L81.09,24.90 L80.34,25.13 L80.00,25.43 L80.11,25.65 L79.73,25.84 L79.68,26.33 Z M97.69,21.61 L98.54,21.34 L98.45,21.24 L97.78,21.40 L97.69,21.61 Z M57.48,30.83 L58.08,31.18 L58.28,31.17 L58.67,31.79 L59.06,31.66 L59.59,30.40 L59.14,30.57 L58.46,30.62 L58.18,30.37 L57.61,30.69 L57.46,30.73 L57.48,30.83 Z M78.67,25.46 L78.89,25.62 L78.92,25.17 L78.67,25.46 Z M58.38,31.84 L57.76,32.01 L57.11,31.65 L56.63,31.83 L56.13,31.74 L55.82,32.34 L55.13,32.84 L55.03,33.37 L56.17,33.10 L56.58,32.87 L57.21,32.81 L57.90,32.88 L58.31,33.61 L58.57,33.54 L58.61,32.83 L58.83,32.03 L58.38,31.84 Z M92.75,22.20 L92.85,21.81 L92.50,21.88 L92.75,22.20 Z M92.31,22.64 L92.52,22.33 L92.26,22.32 L92.31,22.64 Z M86.16,23.63 L86.37,23.38 L86.81,23.30 L86.42,23.14 L86.10,23.22 L86.16,23.63 Z M93.33,17.47 L93.27,17.21 L92.98,17.27 L93.33,17.47 Z M97.25,21.94 L97.67,21.84 L97.16,21.68 L97.25,21.94 Z M96.87,22.06 L97.06,21.78 L96.56,21.95 L96.87,22.06 Z M124.57,35.19 L124.48,35.42 L125.66,35.55 L125.85,36.15 L125.42,36.75 L124.36,37.05 L124.85,37.25 L125.56,37.19 L126.01,36.85 L126.32,36.23 L126.22,35.68 L125.81,35.15 L125.11,35.09 L124.57,35.19 Z M84.92,23.45 L85.13,23.07 L84.73,23.21 L84.92,23.45 Z M57.18,36.21 L57.53,36.22 L57.28,35.86 L57.18,36.21 Z M59.72,33.40 L59.08,33.25 L58.71,33.69 L58.86,34.21 L59.37,34.22 L59.74,33.60 L59.72,33.40 Z M58.79,40.04 L59.18,39.68 L59.10,39.45 L58.79,40.04 Z M115.82,31.63 L115.93,32.00 L116.31,32.31 L116.85,32.48 L117.14,32.26 L116.89,31.50 L116.68,31.34 L116.06,31.35 L115.82,31.63 Z M115.65,32.90 L115.78,33.29 L116.11,33.58 L116.41,33.54 L116.43,33.26 L115.94,32.70 L115.65,32.90 Z M114.67,13.90 L114.67,13.91 L114.68,13.90 L114.67,13.90 Z M114.67,13.90 L114.67,13.90 L114.68,13.90 L114.67,13.90 Z"/>
        <path d="M47.41,-22.18 L47.31,-21.92 L46.63,-21.50 L46.91,-21.13 L46.50,-20.76 L46.11,-20.06 L45.90,-20.04 L45.78,-19.25 L45.91,-18.92 L45.44,-18.73 L44.50,-19.02 L44.49,-19.54 L43.87,-19.03 L43.70,-19.26 L43.83,-19.61 L43.31,-19.73 L43.13,-19.41 L42.82,-19.57 L42.20,-19.44 L42.30,-19.29 L41.93,-18.93 L41.68,-19.02 L41.21,-18.74 L41.26,-18.39 L41.82,-18.43 L41.82,-18.43 L42.39,-18.96 L42.76,-19.00 L43.14,-18.80 L43.10,-18.51 L42.63,-17.81 L42.86,-17.12 L43.24,-16.95 L42.57,-16.53 L41.77,-17.02 L41.14,-16.87 L41.15,-17.01 L40.47,-16.94 L40.35,-16.69 L40.00,-16.99 L40.19,-17.23 L40.02,-17.80 L39.40,-17.87 L39.02,-17.74 L38.99,-17.35 L38.72,-17.32 L38.69,-16.94 L39.02,-16.76 L38.45,-16.62 L38.15,-16.31 L38.08,-15.66 L38.39,-14.60 L38.34,-14.30 L37.96,-14.60 L37.92,-14.93 L36.72,-15.95 L36.15,-15.77 L35.96,-16.30 L35.53,-16.54 L35.41,-16.79 L34.99,-16.68 L34.69,-16.18 L34.28,-15.98 L34.39,-15.63 L33.76,-15.95 L33.44,-15.79 L33.77,-15.36 L33.23,-15.20 L33.33,-14.48 L33.24,-13.88 L32.94,-13.23 L32.57,-13.05 L31.74,-13.08 L30.97,-12.64 L30.37,-12.48 L30.02,-12.21 L29.21,-12.31 L29.49,-12.63 L29.18,-13.00 L29.20,-13.44 L28.99,-13.56 L28.55,-13.06 L28.50,-13.34 L28.14,-13.77 L28.12,-14.39 L27.83,-14.33 L27.48,-13.68 L27.24,-13.74 L26.56,-13.22 L26.13,-13.27 L26.32,-13.96 L26.23,-14.21 L25.71,-14.09 L25.46,-14.72 L25.59,-15.23 L25.11,-15.43 L24.93,-15.23 L24.50,-15.32 L24.40,-15.66 L24.69,-15.97 L23.93,-16.87 L23.59,-17.01 L23.55,-17.54 L23.31,-17.57 L23.10,-17.26 L21.81,-17.04 L21.84,-16.49 L21.30,-16.35 L21.10,-15.77 L20.75,-15.72 L21.01,-14.86 L21.27,-14.79 L21.28,-13.95 L20.88,-13.48 L20.43,-13.68 L20.12,-13.47 L19.95,-12.93 L19.58,-12.98 L18.89,-12.81 L18.65,-12.94 L18.30,-12.71 L17.87,-12.90 L17.38,-12.74 L17.33,-12.39 L16.81,-11.90 L16.39,-11.85 L16.05,-11.53 L15.32,-11.30 L15.23,-11.15 L14.07,-10.81 L13.78,-10.65 L13.24,-10.63 L12.83,-10.74 L12.58,-10.43 L12.09,-10.44 L12.64,-9.70 L12.73,-9.32 L12.38,-8.33 L12.14,-8.35 L11.76,-7.82 L11.05,-7.50 L10.81,-6.94 L10.15,-7.43 L9.94,-7.94 L9.11,-7.99 L8.73,-7.70 L8.09,-7.88 L7.43,-8.42 L6.50,-8.56 L6.40,-8.80 L6.03,-8.73 L5.23,-8.86 L5.19,-9.12 L4.81,-9.54 L4.50,-10.19 L3.83,-10.32 L3.50,-10.14 L2.80,-10.17 L2.63,-10.58 L2.22,-10.89 L1.86,-10.78 L1.63,-10.49 L1.36,-10.50 L0.98,-10.16 L0.99,-10.16 L0.84,-10.02 L0.79,-10.05 L0.38,-9.55 L0.25,-8.93 L0.32,-8.62 L-1.09,-8.25 L-1.44,-8.00 L-1.70,-7.41 L-2.44,-7.23 L-2.89,-6.77 L-3.17,-7.08 L-3.95,-7.24 L-4.30,-7.77 L-5.00,-8.01 L-5.43,-7.16 L-5.10,-5.87 L-4.79,-5.69 L-4.51,-4.67 L-4.08,-4.64 L-3.94,-4.38 L-4.14,-4.15 L-3.82,-4.05 L-3.11,-3.53 L-2.98,-3.74 L-3.17,-4.61 L-3.04,-4.85 L-2.69,-4.78 L-2.51,-5.05 L-2.31,-4.87 L-1.76,-4.90 L-0.94,-4.68 L-0.77,-4.52 L-0.24,-4.53 L0.42,-4.85 L1.10,-4.56 L1.15,-4.09 L1.44,-4.14 L1.96,-3.82 L2.05,-3.59 L1.71,-3.18 L2.25,-2.37 L2.54,-2.31 L2.40,-1.84 L1.90,-1.85 L2.09,-1.18 L2.72,-0.70 L3.07,-0.85 L2.86,-1.04 L3.36,-1.30 L3.50,-1.06 L4.15,-0.74 L4.27,-0.51 L5.19,-0.22 L5.62,-1.45 L6.26,-1.54 L6.62,-1.42 L6.84,-0.39 L7.42,-0.76 L7.79,-0.68 L8.07,-0.84 L8.46,-0.60 L8.40,-0.29 L8.88,-0.37 L9.07,-0.65 L9.41,-0.47 L9.58,-0.79 L9.52,-1.12 L9.70,-1.37 L10.17,-1.24 L10.53,-1.35 L10.67,-1.12 L11.08,-1.01 L11.12,-0.59 L11.57,-0.23 L11.51,-0.02 L11.91,0.44 L12.22,1.16 L12.59,1.29 L12.38,1.48 L12.59,1.88 L12.00,2.20 L12.22,2.98 L12.13,3.62 L11.83,4.28 L12.05,4.67 L11.46,5.17 L11.31,5.48 L10.97,5.60 L10.55,6.00 L10.41,5.54 L9.88,5.33 L9.63,5.43 L9.41,5.15 L8.99,5.13 L8.60,5.35 L8.50,5.78 L8.00,5.86 L7.38,6.50 L6.72,6.47 L7.32,6.92 L7.38,7.31 L6.84,7.10 L6.25,7.47 L5.90,8.07 L5.54,8.32 L5.72,8.87 L5.89,8.94 L6.06,10.16 L6.59,10.17 L6.84,10.02 L7.64,10.20 L7.82,10.54 L8.22,10.63 L8.50,10.94 L8.85,11.01 L9.28,11.78 L9.43,11.57 L10.12,11.44 L10.49,11.56 L10.76,10.98 L11.46,10.92 L11.68,11.09 L12.18,11.01 L12.74,11.11 L13.41,11.89 L13.28,12.08 L13.59,12.33 L14.43,12.43 L14.48,12.21 L14.93,12.22 L15.89,11.86 L16.12,11.46 L16.51,11.71 L16.97,11.69 L17.24,12.17 L17.51,12.37 L17.70,12.06 L18.14,12.17 L18.06,12.34 L18.75,12.92 L18.77,12.91 L18.79,12.90 L18.80,12.91 L18.81,12.92 L18.82,12.92 L18.86,12.92 L18.98,12.93 L19.04,12.89 L19.07,12.88 L19.11,12.87 L19.16,12.87 L19.43,13.02 L19.24,13.40 L18.69,13.72 L18.81,14.05 L18.56,14.26 L18.09,15.51 L17.44,15.51 L17.05,15.21 L16.75,16.14 L16.78,16.62 L16.49,16.81 L16.79,17.70 L16.51,18.01 L17.57,18.18 L17.65,18.70 L17.84,18.94 L17.98,19.53 L17.68,19.80 L18.03,20.03 L17.87,20.31 L18.13,20.81 L18.03,21.55 L17.78,21.79 L17.95,22.22 L18.37,21.70 L18.92,21.73 L19.05,21.99 L19.65,21.94 L20.36,22.14 L20.46,22.51 L20.87,22.62 L21.13,22.36 L21.77,22.72 L21.76,23.02 L21.33,23.32 L21.33,23.76 L22.13,23.94 L22.71,24.42 L23.20,24.66 L23.24,24.86 L23.70,25.03 L24.01,24.77 L24.42,24.69 L24.91,25.42 L24.98,26.13 L25.24,26.22 L25.70,25.70 L26.19,25.50 L26.44,26.00 L26.29,26.20 L26.93,26.30 L27.33,25.99 L27.52,26.18 L28.68,25.97 L29.69,25.55 L30.01,25.71 L30.28,25.60 L30.58,25.90 L30.60,26.19 L30.97,26.31 L31.28,26.87 L32.09,26.75 L32.87,27.15 L33.78,27.03 L33.38,26.69 L33.90,26.18 L34.28,26.16 L34.37,26.57 L33.95,27.18 L34.16,27.34 L35.22,26.81 L35.93,26.89 L36.94,26.65 L37.99,25.31 L38.36,25.28 L38.70,25.67 L38.90,25.51 L39.52,25.85 L39.50,25.86 L39.62,26.13 L40.21,25.86 L40.55,26.03 L41.06,25.86 L41.66,26.26 L43.30,26.38 L43.35,26.47 L43.48,26.50 L43.78,26.51 L43.82,27.12 L43.10,27.36 L42.73,27.71 L42.80,28.07 L43.31,28.13 L43.78,28.46 L44.28,28.43 L44.91,28.06 L46.72,27.91 L47.44,27.75 L47.92,27.93 L48.04,27.61 L48.42,27.31 L48.71,26.99 L48.79,26.62 L49.24,27.31 L49.76,27.65 L50.62,27.72 L50.66,27.35 L50.30,26.63 L50.17,25.97 L50.55,25.38 L50.63,25.74 L51.20,25.75 L51.72,25.58 L51.72,25.58 L52.01,25.40 L52.26,24.30 L52.31,23.48 L52.89,23.08 L53.43,23.35 L53.97,23.21 L54.25,22.85 L54.97,22.88 L55.14,23.03 L55.14,23.03 L55.27,23.07 L55.27,23.07 L55.90,22.96 L55.97,22.69 L56.47,23.01 L57.04,22.95 L56.90,22.45 L56.90,22.45 L56.86,22.14 L56.86,22.14 L56.63,22.05 L56.70,21.62 L56.62,20.73 L56.75,20.42 L56.35,20.13 L56.58,19.65 L56.90,19.99 L57.28,19.52 L57.73,19.72 L58.25,20.23 L58.80,19.65 L59.28,19.78 L59.23,20.01 L59.56,20.16 L60.08,19.90 L59.74,19.38 L60.18,19.06 L60.57,18.56 L60.93,18.79 L61.23,18.70 L60.83,18.19 L60.74,17.84 L60.42,17.76 L60.44,16.98 L60.18,16.57 L60.74,16.72 L60.73,16.34 L60.97,16.13 L60.83,15.71 L61.13,15.40 L61.49,15.50 L62.40,15.33 L62.38,15.09 L62.95,15.12 L63.04,14.84 L63.45,14.90 L64.06,14.71 L64.42,14.20 L64.09,13.83 L64.73,13.66 L65.44,13.76 L65.79,13.63 L67.27,12.09 L67.44,11.55 L67.32,11.23 L67.75,10.98 L67.60,10.82 L68.07,10.48 L68.06,10.08 L67.73,10.16 L67.47,9.99 L67.35,9.30 L67.54,9.06 L67.59,8.59 L67.34,8.26 L67.21,7.78 L67.46,7.56 L67.32,7.17 L67.60,6.78 L67.53,6.53 L67.71,5.76 L68.01,5.79 L68.56,5.07 L68.63,4.05 L69.36,3.89 L69.99,3.91 L69.99,3.69 L70.53,3.04 L70.06,2.96 L70.12,2.27 L70.41,1.79 L70.71,1.90 L70.71,1.90 L71.12,1.90 L72.06,2.08 L72.21,1.80 L72.08,1.20 L72.43,1.01 L72.52,0.54 L73.13,0.58 L73.44,0.10 L73.23,-0.16 L72.78,-1.23 L72.86,-1.82 L72.70,-1.96 L72.76,-2.51 L73.14,-2.45 L73.62,-2.91 L73.92,-2.83 L73.96,-3.08 L74.34,-3.25 L74.69,-3.73 L74.67,-4.25 L74.33,-4.82 L73.90,-5.13 L74.16,-5.52 L74.14,-5.86 L73.77,-6.35 L73.40,-6.53 L73.30,-6.90 L73.57,-7.09 L73.42,-7.52 L73.66,-7.90 L74.32,-8.11 L73.55,-8.43 L73.32,-8.28 L72.74,-8.29 L72.67,-8.45 L72.10,-8.43 L71.77,-8.61 L70.97,-8.64 L70.53,-8.33 L70.23,-7.84 L70.27,-7.50 L69.71,-7.57 L69.52,-7.07 L69.05,-6.99 L68.76,-7.32 L68.25,-7.29 L68.04,-7.53 L68.36,-7.98 L68.55,-8.73 L68.23,-9.38 L68.21,-9.77 L68.45,-10.16 L68.08,-10.41 L68.06,-10.72 L68.35,-10.86 L68.42,-11.18 L67.88,-11.46 L68.08,-11.96 L67.44,-12.34 L67.37,-12.13 L66.88,-12.09 L66.38,-12.59 L65.82,-12.10 L65.60,-11.75 L64.96,-11.40 L64.55,-11.32 L64.54,-10.34 L63.58,-10.08 L63.15,-10.67 L62.96,-11.42 L63.31,-12.05 L63.47,-12.70 L64.67,-13.31 L64.57,-14.05 L64.94,-14.25 L65.43,-14.94 L65.71,-14.90 L66.43,-15.56 L66.95,-16.63 L66.91,-17.10 L67.11,-17.51 L66.75,-17.98 L66.74,-18.80 L67.70,-19.06 L68.16,-19.36 L68.06,-20.17 L68.62,-20.32 L68.34,-20.60 L67.53,-20.56 L67.46,-20.83 L67.14,-20.83 L66.62,-20.48 L66.57,-20.26 L66.14,-20.37 L65.91,-20.94 L65.48,-21.34 L65.97,-22.38 L66.31,-22.49 L66.06,-22.71 L66.29,-22.90 L66.21,-23.51 L66.38,-23.86 L66.35,-24.22 L66.58,-24.28 L66.42,-24.82 L65.89,-24.71 L65.64,-24.87 L65.69,-25.17 L64.43,-25.21 L63.56,-25.53 L63.57,-25.77 L63.20,-26.06 L62.89,-25.93 L62.89,-25.42 L62.70,-25.35 L62.84,-24.98 L61.75,-24.65 L60.93,-24.56 L60.68,-24.81 L60.75,-25.28 L60.53,-25.06 L60.02,-25.32 L59.71,-25.22 L59.37,-25.50 L59.08,-25.09 L58.75,-24.95 L58.68,-24.40 L58.13,-23.67 L57.95,-23.81 L57.53,-23.53 L56.84,-22.82 L56.34,-21.58 L55.62,-21.43 L55.54,-21.97 L54.81,-22.51 L54.68,-22.17 L53.96,-22.07 L53.58,-22.40 L53.96,-23.30 L53.94,-23.70 L53.21,-23.67 L52.58,-23.99 L51.88,-23.34 L51.82,-22.90 L51.46,-22.16 L50.93,-22.30 L50.59,-21.82 L50.84,-21.57 L51.05,-20.89 L50.90,-20.52 L50.56,-20.39 L50.44,-20.66 L49.56,-20.55 L49.50,-21.00 L49.65,-21.41 L49.83,-21.36 L50.03,-21.74 L49.18,-22.04 L49.03,-22.37 L48.54,-22.07 L48.24,-22.09 L47.74,-21.83 L47.41,-22.18 Z M0.99,-10.16 L0.98,-10.16 L0.79,-10.05 L0.84,-10.02 L0.99,-10.16 Z M43.24,32.54 L43.50,32.43 L43.56,32.51 L43.84,32.25 L43.78,31.97 L43.29,32.08 L43.25,32.36 L43.24,32.54 Z"/>
        <path d="M54.02,43.32 L53.34,43.71 L52.87,43.83 L52.53,43.68 L51.83,43.67 L51.36,43.79 L50.93,43.69 L50.37,43.82 L49.85,43.42 L49.28,43.48 L48.51,43.74 L47.89,44.23 L47.59,45.00 L46.66,44.76 L46.01,44.72 L45.49,44.51 L45.06,44.72 L45.02,45.06 L44.76,45.11 L43.99,45.90 L44.10,46.49 L43.87,46.84 L43.30,47.00 L42.83,47.77 L42.24,48.12 L41.56,48.80 L40.78,49.41 L40.26,49.61 L39.83,50.15 L39.07,50.30 L38.55,50.71 L38.18,51.51 L37.99,52.98 L38.07,53.92 L38.40,54.49 L38.48,55.35 L38.03,55.92 L38.01,56.60 L38.64,57.36 L38.76,58.09 L38.51,59.26 L38.55,60.12 L39.02,60.55 L39.95,60.61 L41.06,60.89 L41.31,61.19 L41.73,62.01 L42.38,61.91 L43.46,61.91 L43.78,62.51 L44.16,62.60 L45.36,62.55 L46.07,63.09 L46.98,63.26 L47.25,63.54 L47.89,63.59 L48.50,63.87 L49.32,63.52 L50.00,63.50 L50.25,63.32 L50.63,61.73 L52.05,61.34 L53.14,61.51 L53.64,61.34 L53.85,61.08 L54.13,59.91 L55.16,59.12 L55.50,58.78 L56.38,58.43 L56.79,58.54 L58.18,58.32 L58.18,57.24 L59.02,56.88 L59.15,56.28 L59.10,55.83 L59.46,52.86 L60.06,51.40 L60.37,51.03 L60.62,50.39 L61.23,50.17 L61.83,49.62 L62.30,48.86 L62.64,48.49 L63.57,47.94 L64.13,47.85 L64.24,47.67 L63.94,46.20 L63.62,45.25 L63.12,43.41 L62.86,43.30 L62.12,43.48 L61.46,43.22 L61.14,42.87 L60.78,42.80 L60.49,41.99 L60.18,41.82 L59.84,42.15 L58.85,42.41 L58.47,42.79 L58.14,42.77 L56.99,42.38 L56.27,42.43 L55.96,43.00 L55.47,42.77 L54.43,42.80 L54.02,43.32 Z M76.28,219.52 L76.68,219.87 L77.04,219.61 L76.83,219.07 L76.39,219.16 L76.28,219.52 Z M87.48,173.15 L87.95,172.59 L88.29,172.42 L87.72,173.22 L88.36,172.65 L88.75,171.93 L88.75,171.37 L88.41,171.21 L88.40,171.93 L87.77,172.60 L87.48,173.15 Z M74.09,219.84 L74.28,220.11 L74.80,220.03 L74.85,219.64 L74.43,219.35 L74.09,219.84 Z M68.38,75.50 L69.16,75.20 L68.62,75.71 L69.40,75.39 L69.22,75.04 L68.27,75.33 L68.38,75.50 Z M134.51,96.17 L134.56,96.87 L134.71,97.01 L135.78,96.94 L134.69,96.73 L134.64,96.03 L134.90,95.79 L135.32,96.32 L135.90,96.43 L135.30,96.12 L134.94,95.65 L134.58,95.74 L134.51,96.17 Z M76.63,218.80 L77.17,218.75 L77.12,218.46 L76.76,218.40 L76.63,218.80 Z M71.25,85.10 L71.74,85.10 L72.13,84.80 L72.09,84.40 L71.76,84.27 L71.06,84.54 L71.84,84.52 L71.85,84.85 L71.25,85.10 Z M70.35,84.46 L69.60,84.98 L69.49,85.47 L69.95,85.54 L70.79,84.95 L69.91,85.31 L69.82,85.09 L70.69,84.39 L70.35,84.46 Z M94.16,178.81 L94.40,179.25 L95.12,179.59 L95.87,179.57 L96.92,179.32 L98.32,178.71 L99.15,178.47 L99.56,177.99 L99.69,177.09 L100.17,176.55 L100.98,176.03 L101.13,175.71 L100.98,175.12 L100.67,174.89 L100.26,174.87 L99.64,175.04 L98.09,175.94 L97.49,176.85 L96.26,177.57 L95.56,178.13 L94.42,178.46 L94.16,178.81 Z M95.01,165.00 L95.39,165.40 L95.62,165.98 L95.88,165.62 L95.68,165.32 L95.14,164.94 L95.01,165.00 Z M94.78,165.36 L94.99,165.87 L95.38,165.82 L95.01,165.34 L94.78,165.36 Z M73.80,83.72 L74.09,83.91 L74.87,83.72 L74.86,83.44 L74.57,83.32 L74.10,83.43 L73.80,83.72 Z M71.31,82.31 L71.60,82.12 L71.81,81.58 L71.52,81.30 L71.59,81.85 L71.31,82.31 Z M76.36,165.07 L76.25,164.84 L75.98,165.12 L76.36,165.07 Z M93.05,181.37 L93.43,181.49 L93.44,181.26 L93.05,181.37 Z M97.31,166.18 L97.38,166.58 L97.88,166.62 L97.60,165.96 L97.31,166.18 Z M76.53,76.39 L76.27,76.49 L76.43,76.77 L77.17,76.70 L76.89,76.41 L76.53,76.39 Z M102.55,148.93 L102.69,149.29 L102.94,149.22 L103.17,148.65 L102.85,148.56 L102.55,148.93 Z M114.71,155.87 L114.96,156.04 L115.02,156.52 L115.38,156.30 L115.64,155.09 L115.38,154.93 L115.06,155.12 L114.71,155.87 Z M101.79,153.08 L102.05,153.61 L102.37,153.49 L102.51,152.93 L101.79,153.08 Z M92.81,178.49 L92.85,178.87 L93.29,178.86 L93.47,178.41 L92.81,178.49 Z M47.23,181.69 L47.23,182.00 L47.75,181.95 L48.37,181.36 L49.24,180.21 L49.82,179.86 L50.70,179.72 L52.26,179.93 L52.36,179.73 L51.90,179.42 L50.96,179.19 L49.96,179.16 L49.23,179.33 L47.99,180.54 L47.23,181.69 Z M119.32,164.93 L119.54,165.16 L119.95,164.69 L119.67,164.52 L119.32,164.93 Z M79.11,87.24 L80.11,87.13 L80.55,86.82 L80.30,86.48 L78.96,86.78 L78.82,87.20 L79.11,87.24 Z M79.76,165.29 L80.12,165.63 L80.85,165.59 L80.41,165.15 L79.76,165.29 Z M100.22,143.59 L100.28,143.82 L100.69,143.45 L101.24,143.58 L101.54,143.37 L101.47,142.79 L101.13,142.88 L100.22,143.59 Z M78.40,84.04 L78.13,84.36 L78.42,84.38 L79.11,84.10 L79.69,84.13 L79.75,83.85 L79.46,83.79 L78.40,84.04 Z M121.60,148.39 L121.32,148.90 L121.38,149.33 L121.85,149.46 L122.43,149.38 L123.26,149.05 L123.18,148.72 L121.88,148.90 L122.17,148.12 L122.00,148.05 L121.60,148.39 Z M77.76,77.31 L77.88,77.16 L77.60,76.76 L77.27,76.75 L77.76,77.31 Z M68.78,82.32 L68.72,82.48 L69.26,82.51 L69.18,82.22 L68.78,82.32 Z M111.14,153.82 L111.65,154.13 L112.04,153.84 L112.00,153.61 L111.32,153.43 L111.14,153.82 Z M102.35,172.23 L102.57,172.51 L103.10,172.46 L102.95,172.23 L102.35,172.23 Z M100.63,173.22 L100.87,173.40 L101.56,173.21 L101.86,172.89 L101.56,172.80 L100.63,173.22 Z M107.61,170.31 L107.76,170.75 L108.34,171.01 L108.86,171.09 L109.18,170.64 L109.01,170.48 L107.99,170.21 L107.61,170.31 Z M94.14,174.47 L94.24,174.92 L94.94,175.13 L94.93,174.80 L94.61,174.33 L94.14,174.47 Z M110.46,159.33 L110.61,159.85 L110.81,159.70 L110.67,159.07 L110.46,159.33 Z M121.27,161.72 L121.48,162.12 L121.73,161.82 L121.27,161.72 Z M91.42,163.87 L91.59,164.03 L92.39,163.57 L92.28,163.40 L91.49,163.73 L91.42,163.87 Z M102.63,141.75 L102.77,141.78 L103.65,140.96 L103.72,140.66 L103.37,140.60 L102.77,141.37 L102.63,141.75 Z M101.82,137.08 L102.16,137.03 L102.26,136.10 L101.83,136.14 L101.82,137.08 Z M104.90,143.29 L105.11,143.53 L105.42,142.87 L105.14,142.86 L104.90,143.29 Z M69.55,82.12 L69.61,82.37 L69.98,82.45 L69.76,81.90 L69.55,82.12 Z M94.61,164.97 L94.32,164.83 L94.13,165.11 L94.37,165.38 L94.61,164.97 Z M52.23,176.18 L52.23,176.45 L52.78,176.58 L53.43,176.21 L53.78,175.66 L53.73,175.08 L53.25,175.13 L52.41,175.74 L52.23,176.18 Z M124.13,136.33 L124.53,137.11 L124.60,136.94 L124.25,136.18 L124.13,136.33 Z M70.79,80.84 L71.15,81.14 L71.07,80.77 L70.79,80.84 Z M79.44,82.17 L80.28,81.51 L80.16,81.39 L79.35,81.87 L79.44,82.17 Z M71.54,86.58 L71.86,86.94 L72.25,86.71 L72.27,86.48 L71.54,86.58 Z M93.62,152.50 L93.82,152.67 L93.90,151.36 L93.73,151.38 L93.62,152.50 Z M103.64,172.77 L103.48,173.28 L103.85,173.32 L103.92,172.98 L103.64,172.77 Z M122.33,155.49 L122.43,155.77 L122.72,155.72 L122.33,155.49 Z M108.83,150.61 L108.89,150.82 L109.37,150.52 L108.90,150.40 L108.83,150.61 Z M125.24,147.50 L125.49,147.59 L125.63,147.30 L125.24,147.50 Z M102.69,85.39 L103.89,85.09 L103.75,84.91 L102.71,85.08 L102.69,85.39 Z M116.19,160.10 L115.65,160.22 L115.83,160.68 L116.18,160.69 L116.42,160.41 L116.19,160.10 Z M91.65,161.09 L91.83,161.40 L92.04,161.15 L91.65,161.09 Z M102.30,179.00 L102.37,179.29 L102.89,178.98 L102.70,178.73 L102.30,179.00 Z M100.47,144.88 L100.69,144.83 L101.21,144.22 L100.96,144.05 L100.47,144.88 Z M135.17,144.27 L135.47,144.49 L135.87,143.94 L135.82,143.56 L135.51,143.55 L135.23,143.88 L135.17,144.27 Z M97.82,150.07 L98.04,150.09 L98.70,149.60 L98.56,149.42 L98.06,149.70 L97.82,150.07 Z M102.55,136.68 L102.90,137.12 L103.06,136.74 L102.88,136.43 L102.55,136.68 Z M123.19,147.21 L123.35,147.35 L123.93,147.33 L123.84,147.06 L123.19,147.21 Z M57.77,173.26 L57.89,173.74 L58.77,173.50 L59.25,172.81 L58.92,172.64 L57.79,173.13 L57.77,173.26 Z M68.39,168.80 L68.75,168.81 L68.88,168.52 L68.39,168.80 Z M108.57,168.96 L108.71,169.32 L108.98,168.95 L108.57,168.96 Z M87.01,173.72 L87.16,173.78 L87.66,173.31 L87.51,173.22 L87.01,173.72 Z M96.04,142.57 L95.93,142.84 L96.41,142.69 L96.27,142.37 L96.04,142.57 Z M129.75,149.21 L130.18,149.28 L130.19,148.96 L129.92,148.80 L129.75,149.21 Z M97.50,86.81 L98.55,86.88 L98.49,86.63 L98.09,86.61 L97.50,86.81 Z M59.35,174.41 L59.71,174.65 L59.70,174.19 L59.49,174.08 L59.35,174.41 Z M111.23,169.17 L111.36,169.50 L111.71,169.49 L111.87,169.18 L111.76,168.81 L111.29,168.86 L111.23,169.17 Z M69.19,179.50 L69.23,179.71 L69.66,179.51 L69.97,178.98 L69.49,178.83 L69.19,179.50 Z M70.45,167.18 L70.53,167.73 L71.08,167.43 L70.87,167.12 L70.45,167.18 Z M57.78,176.71 L58.06,176.89 L58.32,176.65 L58.04,176.41 L57.78,176.71 Z M77.73,164.42 L78.23,164.49 L78.14,164.20 L77.73,164.42 Z M121.40,154.78 L121.51,155.05 L121.81,154.98 L121.62,154.66 L121.40,154.78 Z M73.28,173.75 L73.53,173.97 L74.02,174.01 L74.27,173.81 L74.21,173.51 L73.59,173.36 L73.28,173.75 Z M100.09,91.63 L100.19,91.87 L100.46,91.69 L100.09,91.63 Z M105.68,140.95 L105.98,141.11 L106.07,140.86 L105.68,140.95 Z M96.36,87.21 L96.42,87.49 L96.64,87.17 L96.36,87.21 Z M116.91,151.67 L117.14,151.99 L117.44,151.69 L117.17,151.30 L116.91,151.67 Z M129.84,145.16 L130.70,145.37 L131.30,145.39 L131.44,145.04 L130.93,144.61 L130.12,144.69 L129.84,145.16 Z M104.30,182.77 L103.93,183.33 L104.46,183.27 L104.30,182.77 Z M82.79,164.59 L83.17,164.82 L83.32,164.61 L82.79,164.59 Z M70.58,178.34 L70.97,178.36 L71.42,177.76 L71.17,177.48 L70.80,177.68 L70.58,178.34 Z M76.27,165.41 L76.57,165.50 L76.62,165.22 L76.27,165.41 Z M79.66,198.59 L79.71,198.90 L80.03,198.98 L80.03,198.31 L79.66,198.59 Z M101.60,165.29 L102.09,165.31 L102.48,164.91 L102.30,164.70 L101.79,164.91 L101.60,165.29 Z M104.45,174.70 L104.86,175.06 L104.94,174.44 L104.60,174.40 L104.45,174.70 Z M84.08,170.05 L84.50,169.84 L84.13,169.80 L84.08,170.05 Z M91.01,185.85 L90.80,186.31 L91.26,186.07 L91.01,185.85 Z M123.79,83.48 L123.92,83.98 L124.25,83.94 L124.34,83.32 L124.03,83.18 L123.79,83.48 Z M130.70,151.72 L130.76,152.02 L131.10,152.02 L130.97,151.55 L130.70,151.72 Z M84.58,49.38 L85.06,49.29 L85.16,49.00 L84.96,48.76 L84.58,48.79 L84.45,49.11 L84.58,49.38 Z M99.99,86.88 L100.38,86.88 L100.77,86.64 L100.17,86.52 L99.99,86.88 Z M93.47,52.80 L93.91,52.88 L94.34,52.65 L94.40,52.09 L93.93,51.94 L93.20,52.09 L93.12,52.35 L93.47,52.80 Z M80.96,206.09 L81.02,206.65 L81.30,206.73 L81.69,206.43 L81.26,205.94 L80.96,206.09 Z M70.25,175.54 L70.53,175.76 L71.03,175.76 L71.04,175.32 L70.38,175.26 L70.25,175.54 Z M76.66,164.98 L77.05,165.20 L77.13,164.86 L76.66,164.98 Z M83.52,176.22 L83.92,176.41 L83.94,175.97 L83.52,176.22 Z M80.25,201.13 L80.50,201.61 L80.58,202.18 L80.88,201.92 L80.60,201.06 L80.25,201.13 Z M79.61,200.10 L79.84,200.54 L80.06,200.38 L80.02,199.87 L79.67,199.76 L79.61,200.10 Z M109.66,109.63 L110.04,109.89 L110.48,109.69 L110.32,109.32 L109.83,109.42 L109.66,109.63 Z M90.98,150.08 L91.20,150.28 L91.42,150.05 L90.98,150.08 Z M93.77,92.96 L94.12,93.10 L94.08,92.81 L93.77,92.96 Z M83.68,207.33 L84.06,207.35 L84.16,206.74 L83.72,206.84 L83.68,207.33 Z M79.97,206.07 L80.10,206.48 L80.54,206.26 L80.44,205.95 L79.97,206.07 Z M77.78,200.48 L78.16,200.55 L78.15,200.25 L77.78,200.48 Z M76.46,78.97 L76.76,79.05 L76.84,78.77 L76.30,78.57 L76.46,78.97 Z M76.54,90.57 L76.82,90.15 L76.62,90.08 L76.22,90.37 L76.54,90.57 Z M80.55,203.25 L80.85,203.47 L81.33,203.21 L81.39,202.82 L80.68,202.88 L80.55,203.25 Z M79.07,199.19 L79.33,199.22 L79.35,198.80 L79.07,199.19 Z M86.96,193.01 L87.10,193.24 L87.24,192.79 L86.96,193.01 Z M118.04,157.30 L118.43,157.45 L118.42,157.12 L118.04,157.30 Z M105.30,179.89 L105.42,180.15 L105.97,180.15 L105.98,179.70 L105.30,179.89 Z M69.35,176.63 L69.68,177.02 L70.05,176.27 L69.88,176.04 L69.35,176.63 Z M94.60,89.05 L94.96,89.37 L94.94,89.00 L94.60,89.05 Z M105.06,86.85 L104.73,86.85 L104.89,87.23 L105.06,86.85 Z M124.36,163.00 L123.84,163.08 L123.93,163.35 L124.27,163.31 L124.36,163.00 Z M80.91,83.04 L81.29,82.88 L81.06,82.60 L80.91,83.04 Z M65.63,44.43 L65.63,44.43 L65.64,44.43 L65.64,44.42 L65.63,44.43 Z M113.87,147.68 L114.06,147.97 L114.33,147.65 L113.87,147.68 Z M129.28,144.69 L129.00,144.62 L129.21,144.99 L129.28,144.69 Z M81.18,83.63 L81.49,83.63 L81.25,83.33 L81.18,83.63 Z M114.12,146.80 L114.26,147.25 L114.36,146.98 L114.12,146.80 Z M79.49,157.68 L79.46,157.88 L80.10,157.98 L80.08,157.57 L79.49,157.68 Z M101.71,91.08 L101.40,91.34 L101.72,91.45 L101.71,91.08 Z M130.18,140.95 L129.81,141.11 L130.03,141.52 L130.24,141.50 L130.18,140.95 Z M134.33,141.27 L133.94,141.30 L133.96,141.53 L134.33,141.62 L134.33,141.27 Z M97.01,159.42 L97.10,159.89 L97.32,159.79 L97.31,159.34 L97.01,159.42 Z M102.82,155.58 L102.59,155.53 L102.46,155.90 L102.72,155.98 L102.82,155.58 Z M79.94,196.59 L79.93,196.98 L80.17,196.66 L79.94,196.59 Z"/>
        <path d="M45.21,-49.07 L44.78,-48.85 L44.33,-48.81 L43.93,-48.22 L43.92,-47.49 L43.54,-46.70 L43.17,-46.37 L43.38,-45.88 L43.22,-45.68 L42.59,-46.08 L42.37,-45.45 L41.57,-45.75 L41.50,-46.04 L41.20,-46.07 L40.78,-45.85 L40.42,-46.35 L39.90,-46.00 L39.54,-46.16 L39.41,-46.75 L39.79,-46.99 L40.01,-47.82 L39.77,-47.93 L39.98,-48.32 L39.62,-48.59 L39.23,-49.14 L39.13,-48.93 L38.68,-48.88 L38.50,-48.66 L39.01,-48.28 L39.10,-48.05 L38.67,-47.60 L38.79,-47.32 L38.20,-47.22 L37.86,-47.42 L37.83,-47.89 L38.17,-48.12 L38.18,-48.43 L37.94,-48.73 L37.80,-49.47 L38.19,-49.56 L38.12,-50.12 L38.46,-50.45 L37.82,-50.87 L37.04,-50.63 L37.03,-50.51 L36.37,-50.59 L35.24,-51.08 L35.40,-51.70 L35.80,-52.09 L35.81,-52.43 L35.45,-52.57 L35.39,-53.05 L35.51,-53.41 L35.38,-53.96 L35.10,-54.16 L34.87,-55.07 L34.97,-55.44 L34.66,-55.58 L34.43,-55.02 L33.77,-55.37 L33.31,-55.16 L32.47,-55.52 L32.00,-55.01 L30.94,-54.93 L30.75,-54.66 L30.48,-54.65 L30.32,-54.15 L29.71,-54.41 L29.85,-54.95 L29.44,-55.10 L29.72,-56.10 L29.06,-56.76 L28.55,-56.12 L28.12,-56.35 L27.54,-56.38 L27.37,-56.22 L27.17,-56.96 L26.28,-56.48 L25.80,-56.80 L25.38,-56.59 L25.45,-56.08 L25.66,-55.98 L25.49,-55.61 L25.04,-55.58 L25.32,-55.03 L24.98,-54.68 L25.33,-54.51 L25.50,-54.14 L25.80,-53.97 L25.51,-53.61 L25.19,-52.93 L24.72,-52.90 L24.60,-52.52 L23.90,-52.32 L23.74,-51.99 L23.45,-52.10 L23.36,-52.59 L23.54,-52.79 L23.19,-52.81 L23.32,-53.15 L22.63,-53.36 L21.30,-53.30 L21.34,-53.07 L20.96,-52.96 L21.01,-52.14 L20.62,-52.04 L20.32,-52.51 L19.78,-52.15 L19.50,-52.19 L19.27,-51.92 L19.72,-51.20 L19.96,-51.27 L19.72,-50.49 L19.34,-50.48 L19.10,-50.10 L18.85,-50.51 L18.56,-50.30 L18.78,-49.82 L18.37,-49.72 L18.24,-49.33 L18.46,-48.77 L18.05,-48.59 L17.94,-48.88 L17.25,-49.17 L16.53,-48.97 L16.56,-49.39 L17.06,-49.67 L16.97,-50.14 L17.29,-50.47 L17.10,-50.71 L17.45,-50.76 L17.09,-50.95 L17.08,-51.22 L16.77,-51.22 L16.49,-51.52 L16.50,-51.92 L15.57,-52.76 L15.35,-52.58 L15.44,-51.97 L15.76,-51.77 L16.14,-51.07 L15.87,-50.89 L15.76,-50.12 L15.49,-50.07 L15.90,-49.62 L15.60,-49.46 L14.82,-49.89 L14.51,-49.41 L14.56,-48.91 L14.24,-48.84 L13.78,-49.18 L13.65,-49.53 L13.25,-49.56 L12.50,-50.10 L12.36,-50.54 L12.12,-50.68 L11.64,-50.61 L11.45,-51.11 L10.87,-51.25 L10.56,-51.79 L10.20,-51.98 L9.89,-51.16 L9.38,-50.99 L9.33,-50.17 L8.52,-50.22 L8.27,-50.34 L7.98,-50.11 L7.85,-50.40 L7.51,-50.07 L7.30,-50.10 L7.19,-49.50 L6.57,-49.32 L6.45,-48.46 L6.78,-48.38 L6.90,-47.63 L6.74,-47.21 L7.26,-46.77 L7.69,-46.64 L7.77,-46.98 L8.06,-47.04 L8.06,-47.04 L8.30,-47.34 L8.69,-47.02 L8.95,-46.46 L9.38,-46.27 L9.08,-45.42 L9.44,-44.98 L9.96,-45.24 L10.30,-44.85 L11.54,-45.45 L12.09,-45.45 L12.74,-45.14 L13.37,-44.40 L13.16,-43.80 L13.58,-43.75 L14.02,-43.16 L13.81,-42.98 L13.78,-42.57 L13.99,-42.57 L14.12,-42.13 L13.80,-41.59 L13.12,-41.14 L12.60,-40.99 L11.83,-41.27 L11.23,-41.24 L10.80,-40.91 L10.39,-40.95 L9.79,-40.73 L9.74,-40.91 L9.16,-40.76 L8.95,-40.48 L8.09,-40.60 L7.62,-40.47 L7.59,-40.22 L7.00,-40.22 L6.57,-40.03 L6.37,-40.57 L5.90,-40.62 L5.35,-41.15 L4.62,-41.22 L3.71,-40.93 L3.23,-40.45 L3.10,-39.66 L3.19,-39.44 L2.68,-39.12 L2.43,-38.73 L2.72,-38.38 L2.45,-38.10 L2.43,-37.53 L1.90,-36.77 L1.92,-37.05 L1.25,-37.33 L0.69,-37.33 L0.08,-36.90 L-0.94,-36.33 L-1.39,-35.94 L-1.60,-36.03 L-1.54,-36.39 L-1.88,-36.62 L-2.45,-36.23 L-2.63,-36.54 L-4.14,-36.11 L-4.57,-36.39 L-4.90,-36.34 L-5.35,-37.29 L-5.66,-37.28 L-6.77,-37.87 L-7.35,-37.21 L-7.48,-36.85 L-7.99,-36.44 L-7.98,-35.95 L-8.38,-36.01 L-8.78,-35.64 L-9.41,-36.45 L-9.72,-36.37 L-10.43,-36.95 L-10.45,-37.44 L-11.07,-37.41 L-11.33,-37.61 L-11.61,-36.97 L-11.63,-36.56 L-11.94,-36.38 L-12.03,-35.84 L-12.72,-35.66 L-12.71,-35.50 L-13.27,-35.06 L-13.83,-34.14 L-14.49,-34.08 L-14.63,-33.82 L-14.29,-33.78 L-14.21,-33.48 L-14.69,-33.63 L-14.83,-33.44 L-14.59,-33.15 L-14.60,-32.84 L-14.05,-33.33 L-13.73,-33.30 L-13.45,-32.97 L-13.22,-32.37 L-12.99,-32.23 L-13.12,-31.74 L-12.95,-31.39 L-13.55,-31.14 L-13.73,-30.53 L-13.52,-29.96 L-13.01,-29.67 L-13.16,-29.38 L-13.27,-28.66 L-13.12,-28.24 L-12.56,-27.88 L-12.52,-27.64 L-12.03,-27.45 L-11.11,-27.55 L-10.52,-27.44 L-9.90,-27.47 L-9.89,-28.11 L-9.33,-28.81 L-8.91,-28.91 L-8.26,-28.62 L-7.77,-28.59 L-7.70,-28.77 L-7.29,-28.54 L-6.87,-28.63 L-6.40,-29.34 L-6.12,-29.59 L-5.66,-28.89 L-5.75,-28.43 L-5.44,-28.18 L-4.72,-28.30 L-4.47,-28.06 L-4.57,-27.58 L-4.27,-27.54 L-3.85,-27.07 L-3.92,-26.79 L-3.56,-26.59 L-3.58,-26.19 L-3.37,-25.97 L-3.63,-25.52 L-4.34,-25.32 L-4.87,-24.62 L-4.80,-24.33 L-5.12,-23.66 L-5.02,-23.10 L-5.32,-22.62 L-5.74,-22.79 L-5.63,-21.95 L-5.97,-21.06 L-6.23,-20.87 L-5.94,-20.42 L-6.13,-20.13 L-6.40,-19.25 L-6.69,-18.91 L-7.13,-19.24 L-7.33,-18.01 L-7.09,-17.47 L-6.49,-17.44 L-6.08,-17.22 L-6.00,-16.62 L-6.18,-16.39 L-6.01,-16.09 L-5.85,-16.34 L-5.49,-16.34 L-5.06,-16.69 L-4.72,-16.67 L-4.86,-15.31 L-4.61,-15.34 L-4.09,-14.92 L-3.77,-14.83 L-3.84,-14.17 L-3.31,-14.17 L-2.82,-13.86 L-1.97,-13.81 L-1.86,-13.51 L-2.07,-13.39 L-1.90,-12.80 L-2.12,-12.73 L-2.63,-13.28 L-2.95,-13.07 L-2.86,-12.77 L-3.25,-12.28 L-3.35,-11.80 L-4.05,-11.60 L-3.36,-11.53 L-3.06,-10.90 L-3.58,-10.56 L-3.88,-9.89 L-4.40,-9.56 L-4.90,-8.91 L-4.87,-8.28 L-5.00,-8.01 L-4.30,-7.77 L-3.95,-7.24 L-3.17,-7.08 L-2.89,-6.77 L-2.44,-7.23 L-1.70,-7.41 L-1.44,-8.00 L-1.09,-8.25 L0.32,-8.62 L0.25,-8.93 L0.38,-9.55 L0.79,-10.05 L0.98,-10.16 L1.36,-10.50 L1.63,-10.49 L1.86,-10.78 L2.22,-10.89 L2.63,-10.58 L2.80,-10.17 L3.50,-10.14 L3.83,-10.32 L4.50,-10.19 L4.81,-9.54 L5.19,-9.12 L5.23,-8.86 L6.03,-8.73 L6.40,-8.80 L6.50,-8.56 L7.43,-8.42 L8.09,-7.88 L8.73,-7.70 L9.11,-7.99 L9.94,-7.94 L10.15,-7.43 L10.81,-6.94 L11.05,-7.50 L11.76,-7.82 L12.14,-8.35 L12.38,-8.33 L12.73,-9.32 L12.64,-9.70 L12.09,-10.44 L12.58,-10.43 L12.83,-10.74 L13.24,-10.63 L13.78,-10.65 L14.07,-10.81 L15.23,-11.15 L15.32,-11.30 L16.05,-11.53 L16.39,-11.85 L16.81,-11.90 L17.33,-12.39 L17.38,-12.74 L17.87,-12.90 L18.30,-12.71 L18.65,-12.94 L18.89,-12.81 L19.58,-12.98 L19.95,-12.93 L20.12,-13.47 L20.43,-13.68 L20.88,-13.48 L21.28,-13.95 L21.27,-14.79 L21.01,-14.86 L20.75,-15.72 L21.10,-15.77 L21.30,-16.35 L21.84,-16.49 L21.81,-17.04 L23.10,-17.26 L23.31,-17.57 L23.55,-17.54 L23.59,-17.01 L23.93,-16.87 L24.69,-15.97 L24.40,-15.66 L24.50,-15.32 L24.93,-15.23 L25.11,-15.43 L25.59,-15.23 L25.46,-14.72 L25.71,-14.09 L26.23,-14.21 L26.32,-13.96 L26.13,-13.27 L26.56,-13.22 L27.24,-13.74 L27.48,-13.68 L27.83,-14.33 L28.12,-14.39 L28.14,-13.77 L28.50,-13.34 L28.55,-13.06 L28.99,-13.56 L29.20,-13.44 L29.18,-13.00 L29.49,-12.63 L29.21,-12.31 L30.02,-12.21 L30.37,-12.48 L30.97,-12.64 L31.74,-13.08 L32.57,-13.05 L32.94,-13.23 L33.24,-13.88 L33.33,-14.48 L33.23,-15.20 L33.77,-15.36 L33.44,-15.79 L33.76,-15.95 L34.39,-15.63 L34.28,-15.98 L34.69,-16.18 L34.99,-16.68 L35.41,-16.79 L35.53,-16.54 L35.96,-16.30 L36.15,-15.77 L36.72,-15.95 L37.92,-14.93 L37.96,-14.60 L38.34,-14.30 L38.39,-14.60 L38.08,-15.66 L38.15,-16.31 L38.45,-16.62 L39.02,-16.76 L38.69,-16.94 L38.72,-17.32 L38.99,-17.35 L39.02,-17.74 L39.40,-17.87 L40.02,-17.80 L40.19,-17.23 L40.00,-16.99 L40.35,-16.69 L40.47,-16.94 L41.15,-17.01 L41.14,-16.87 L41.77,-17.02 L42.57,-16.53 L43.24,-16.95 L42.86,-17.12 L42.63,-17.81 L43.10,-18.51 L43.14,-18.80 L42.76,-19.00 L42.39,-18.96 L41.82,-18.43 L41.82,-18.43 L41.26,-18.39 L41.21,-18.74 L41.68,-19.02 L41.93,-18.93 L42.30,-19.29 L42.20,-19.44 L42.82,-19.57 L43.13,-19.41 L43.31,-19.73 L43.83,-19.61 L43.70,-19.26 L43.87,-19.03 L44.49,-19.54 L44.50,-19.02 L45.44,-18.73 L45.91,-18.92 L45.78,-19.25 L45.90,-20.04 L46.11,-20.06 L46.50,-20.76 L46.91,-21.13 L46.63,-21.50 L47.31,-21.92 L47.41,-22.18 L47.10,-22.46 L47.07,-22.96 L47.63,-22.91 L47.75,-23.25 L47.35,-23.47 L46.95,-24.46 L47.25,-25.28 L46.99,-25.01 L46.22,-24.88 L46.02,-24.73 L45.75,-25.02 L45.33,-25.08 L45.18,-25.43 L45.44,-25.68 L45.69,-26.42 L46.34,-26.81 L46.14,-27.00 L46.39,-27.24 L46.34,-27.51 L46.62,-27.67 L46.44,-28.39 L46.06,-29.04 L45.84,-28.90 L45.55,-29.07 L45.31,-29.48 L46.06,-29.42 L46.62,-29.71 L47.05,-30.14 L47.46,-30.15 L47.35,-30.91 L47.25,-30.93 L47.10,-31.26 L46.92,-31.59 L48.18,-32.19 L47.81,-33.41 L47.58,-33.63 L47.46,-33.35 L47.12,-33.52 L47.31,-34.24 L46.97,-34.05 L46.70,-34.44 L46.10,-34.43 L45.85,-34.28 L45.10,-34.20 L44.84,-34.39 L44.60,-34.02 L44.06,-33.49 L43.38,-33.51 L43.67,-34.10 L42.65,-33.90 L42.39,-33.64 L41.68,-33.26 L41.70,-32.95 L41.70,-32.95 L41.01,-32.94 L40.09,-33.68 L41.03,-33.92 L41.54,-34.52 L41.33,-35.00 L41.92,-35.33 L42.13,-35.69 L42.87,-35.96 L42.78,-36.38 L43.40,-36.43 L43.81,-37.33 L43.81,-37.65 L44.07,-37.32 L44.45,-37.68 L44.90,-37.32 L45.48,-37.39 L45.51,-37.95 L46.59,-38.77 L47.19,-38.95 L47.08,-39.16 L47.28,-39.62 L47.14,-40.11 L47.29,-40.18 L46.69,-40.67 L46.18,-40.64 L46.30,-40.80 L45.83,-41.30 L45.98,-41.91 L45.71,-42.23 L45.50,-43.20 L45.69,-43.55 L46.14,-43.75 L46.31,-44.05 L45.86,-44.36 L45.46,-44.07 L45.63,-44.80 L45.88,-45.22 L45.90,-45.75 L46.20,-46.45 L46.41,-46.60 L45.85,-46.88 L45.67,-46.70 L45.22,-47.09 L45.15,-47.36 L45.36,-47.75 L45.10,-47.96 L45.06,-48.74 L45.21,-49.07 Z M47.35,-30.91 L47.46,-30.15 L47.83,-30.03 L47.84,-30.03 L47.57,-30.75 L47.74,-31.02 L47.70,-31.43 L47.46,-31.63 L47.10,-31.26 L47.25,-30.93 L47.35,-30.91 Z M47.90,-29.97 L48.32,-29.78 L48.63,-30.11 L48.18,-29.88 L47.90,-29.97 Z"/>
        <path d="M3.23,-40.45 L3.04,-40.54 L3.07,-41.17 L2.86,-41.44 L3.28,-41.61 L2.71,-41.79 L2.43,-42.53 L2.98,-42.97 L2.83,-43.64 L2.59,-43.77 L2.28,-43.57 L1.94,-43.62 L1.74,-43.91 L1.94,-44.27 L1.75,-44.45 L1.23,-44.46 L0.62,-44.73 L-0.01,-44.37 L-0.24,-44.36 L-0.29,-43.90 L-1.05,-43.26 L-0.89,-43.01 L-1.21,-42.74 L-1.69,-42.59 L-2.18,-42.60 L-2.55,-42.41 L-2.74,-42.60 L-3.45,-42.37 L-3.91,-42.05 L-4.18,-42.13 L-4.54,-41.94 L-5.05,-42.47 L-5.23,-42.34 L-5.85,-42.88 L-6.37,-43.15 L-6.77,-43.81 L-7.35,-44.07 L-7.39,-44.23 L-6.66,-44.23 L-6.37,-44.67 L-5.86,-44.91 L-5.91,-45.44 L-6.31,-45.56 L-6.36,-45.89 L-5.93,-45.98 L-5.72,-46.31 L-5.85,-46.62 L-6.17,-46.62 L-6.45,-46.85 L-6.54,-47.27 L-6.98,-47.32 L-7.29,-47.02 L-7.63,-47.42 L-7.92,-48.08 L-7.78,-49.12 L-7.85,-49.52 L-7.19,-49.57 L-6.85,-49.73 L-6.64,-50.16 L-6.19,-50.20 L-6.11,-50.51 L-6.67,-50.75 L-7.28,-50.39 L-7.68,-50.57 L-7.94,-50.88 L-8.17,-50.61 L-8.81,-50.69 L-9.37,-50.59 L-9.60,-50.26 L-9.98,-50.52 L-11.10,-50.23 L-11.56,-50.56 L-11.80,-50.44 L-12.19,-50.95 L-12.38,-50.28 L-12.32,-50.08 L-12.70,-49.82 L-12.92,-49.40 L-12.41,-48.69 L-12.42,-48.47 L-12.09,-47.86 L-12.16,-47.57 L-11.91,-47.13 L-12.42,-46.79 L-13.04,-46.22 L-13.36,-46.25 L-13.77,-45.84 L-13.87,-46.21 L-14.38,-46.52 L-15.13,-46.19 L-15.55,-45.51 L-16.22,-45.01 L-16.64,-44.16 L-16.34,-43.91 L-16.05,-44.04 L-15.74,-43.30 L-15.32,-43.44 L-15.88,-42.70 L-15.80,-41.97 L-16.04,-41.44 L-16.32,-41.27 L-17.04,-40.50 L-17.28,-40.49 L-17.50,-40.16 L-18.10,-39.67 L-18.17,-38.89 L-18.73,-38.98 L-19.18,-38.48 L-19.67,-37.68 L-19.70,-37.35 L-20.34,-37.09 L-20.61,-37.23 L-21.30,-36.78 L-21.82,-37.19 L-22.25,-36.23 L-22.42,-36.03 L-22.43,-35.59 L-22.21,-35.25 L-22.11,-34.23 L-22.56,-33.06 L-22.30,-32.79 L-22.29,-31.81 L-21.73,-31.06 L-21.55,-31.00 L-21.28,-30.32 L-21.37,-30.22 L-21.11,-29.61 L-21.14,-29.27 L-20.92,-29.10 L-20.82,-27.93 L-20.64,-27.92 L-20.64,-27.47 L-20.87,-27.16 L-21.30,-27.12 L-21.31,-26.36 L-21.21,-25.91 L-21.45,-25.57 L-22.32,-25.55 L-22.47,-25.83 L-22.96,-25.20 L-23.47,-25.12 L-23.95,-24.79 L-24.27,-24.15 L-24.80,-24.27 L-25.42,-24.59 L-25.02,-25.21 L-25.11,-25.53 L-25.73,-25.81 L-26.04,-25.55 L-27.12,-25.13 L-27.63,-25.09 L-28.08,-24.52 L-29.18,-24.17 L-29.21,-23.93 L-29.93,-23.46 L-30.17,-23.05 L-30.64,-22.60 L-30.93,-22.56 L-31.56,-22.91 L-32.26,-22.78 L-32.53,-23.01 L-32.84,-22.94 L-33.29,-22.39 L-33.52,-22.36 L-33.48,-22.76 L-33.93,-23.11 L-33.82,-23.56 L-34.18,-23.69 L-34.57,-24.25 L-35.06,-24.49 L-35.69,-24.31 L-36.16,-24.91 L-36.04,-25.17 L-35.59,-25.33 L-35.37,-25.64 L-35.64,-25.76 L-35.61,-26.10 L-36.38,-26.82 L-36.76,-26.95 L-37.01,-27.31 L-37.52,-27.26 L-37.89,-27.65 L-38.18,-28.31 L-38.11,-28.45 L-37.48,-28.47 L-37.49,-28.85 L-37.27,-29.20 L-37.57,-29.41 L-36.93,-30.24 L-37.44,-30.44 L-37.65,-30.30 L-37.52,-29.83 L-37.76,-29.94 L-38.25,-29.74 L-38.27,-30.08 L-38.57,-30.27 L-38.14,-31.04 L-38.50,-31.50 L-39.07,-31.71 L-39.54,-31.71 L-39.57,-32.28 L-39.97,-32.32 L-39.95,-32.57 L-40.93,-33.02 L-40.70,-33.80 L-40.83,-33.89 L-40.57,-34.68 L-40.59,-34.93 L-40.59,-34.93 L-41.11,-35.04 L-41.61,-34.89 L-41.92,-35.18 L-42.09,-35.72 L-42.14,-36.40 L-42.88,-37.42 L-43.03,-37.89 L-43.41,-37.71 L-43.29,-38.46 L-43.90,-39.57 L-44.19,-39.48 L-43.97,-40.10 L-44.67,-40.31 L-44.74,-40.87 L-44.94,-41.17 L-45.47,-41.50 L-45.34,-42.13 L-45.74,-42.84 L-46.23,-42.76 L-46.50,-42.14 L-47.18,-41.59 L-47.54,-41.80 L-47.61,-42.06 L-48.27,-42.22 L-48.59,-41.67 L-49.24,-41.01 L-49.48,-40.62 L-49.65,-40.66 L-49.73,-41.37 L-49.93,-41.56 L-49.69,-41.82 L-49.69,-42.16 L-50.72,-42.33 L-51.15,-42.67 L-50.87,-42.98 L-51.68,-43.88 L-52.02,-43.99 L-52.35,-44.74 L-52.73,-45.28 L-52.60,-45.69 L-52.30,-45.79 L-51.99,-45.65 L-51.87,-45.87 L-51.33,-45.94 L-50.96,-46.43 L-51.40,-46.82 L-51.09,-47.22 L-51.51,-47.49 L-52.35,-47.70 L-52.17,-48.32 L-53.06,-48.88 L-53.11,-49.45 L-53.81,-50.21 L-54.27,-50.35 L-54.29,-50.57 L-54.71,-50.53 L-54.70,-50.88 L-55.13,-51.30 L-55.54,-51.32 L-55.89,-51.94 L-55.94,-52.91 L-56.38,-52.51 L-56.92,-52.56 L-57.09,-52.23 L-57.03,-51.75 L-57.68,-51.43 L-57.91,-51.07 L-57.82,-50.48 L-58.20,-50.43 L-58.61,-50.00 L-58.63,-49.67 L-59.27,-49.63 L-59.34,-49.03 L-59.03,-48.63 L-59.26,-48.52 L-58.91,-48.02 L-59.38,-47.15 L-59.18,-46.89 L-59.57,-45.66 L-60.29,-46.16 L-60.48,-46.80 L-61.02,-47.14 L-61.11,-47.50 L-61.42,-47.66 L-61.79,-48.31 L-61.56,-48.47 L-61.51,-49.07 L-61.74,-49.85 L-61.59,-50.10 L-61.98,-50.66 L-62.20,-51.29 L-62.12,-51.69 L-62.33,-52.02 L-62.44,-52.85 L-62.23,-53.38 L-62.14,-54.02 L-62.34,-55.37 L-62.29,-55.68 L-62.43,-56.35 L-62.34,-56.99 L-63.14,-56.84 L-63.28,-56.64 L-63.73,-56.81 L-63.95,-56.39 L-63.88,-55.98 L-63.62,-55.73 L-63.40,-54.98 L-64.32,-54.35 L-64.40,-53.35 L-63.81,-53.11 L-63.83,-52.75 L-64.35,-52.66 L-64.46,-52.41 L-65.10,-52.38 L-65.36,-52.63 L-65.42,-53.72 L-65.80,-54.57 L-66.10,-54.63 L-66.69,-54.19 L-67.18,-54.33 L-67.51,-54.13 L-67.17,-53.61 L-67.30,-53.44 L-67.04,-52.87 L-67.21,-52.59 L-66.88,-51.75 L-67.06,-51.44 L-67.83,-50.96 L-67.37,-49.70 L-67.56,-49.23 L-67.49,-49.02 L-66.99,-48.90 L-66.78,-48.38 L-66.28,-47.48 L-66.22,-47.18 L-66.60,-46.83 L-66.58,-46.18 L-67.24,-45.86 L-67.49,-45.48 L-68.20,-45.67 L-68.89,-45.21 L-69.20,-45.32 L-69.58,-44.82 L-70.00,-44.93 L-69.99,-45.47 L-70.20,-45.68 L-70.12,-46.36 L-70.38,-46.87 L-70.76,-47.22 L-70.93,-47.87 L-71.91,-47.58 L-71.92,-47.28 L-71.67,-47.11 L-71.30,-46.32 L-71.82,-46.00 L-72.33,-45.92 L-72.28,-45.46 L-72.65,-45.23 L-72.43,-44.78 L-72.71,-43.57 L-72.61,-43.12 L-72.14,-43.01 L-71.95,-42.47 L-72.33,-42.05 L-71.84,-41.61 L-71.64,-40.30 L-71.12,-39.91 L-70.83,-39.13 L-70.76,-38.43 L-70.55,-38.31 L-70.01,-38.38 L-69.58,-38.75 L-69.57,-39.89 L-69.42,-40.02 L-69.09,-39.69 L-68.45,-39.54 L-68.25,-39.82 L-67.90,-39.17 L-67.94,-39.00 L-67.23,-38.96 L-67.11,-39.17 L-66.64,-38.80 L-66.87,-38.05 L-66.66,-37.81 L-66.85,-37.41 L-66.68,-37.27 L-66.64,-36.72 L-66.28,-36.37 L-66.34,-35.90 L-66.53,-35.72 L-66.46,-35.18 L-66.75,-35.07 L-66.56,-34.29 L-66.58,-33.59 L-66.02,-33.32 L-66.05,-32.96 L-66.37,-32.79 L-66.11,-31.43 L-66.39,-31.14 L-66.05,-30.57 L-66.22,-29.46 L-65.97,-29.39 L-66.05,-29.06 L-65.85,-28.63 L-65.94,-28.16 L-66.15,-27.96 L-66.11,-27.22 L-66.28,-26.58 L-66.18,-26.49 L-66.35,-25.68 L-66.91,-25.22 L-67.00,-24.47 L-66.57,-24.38 L-66.33,-23.87 L-66.58,-23.56 L-66.50,-23.24 L-67.12,-22.81 L-67.17,-23.38 L-67.42,-23.45 L-68.03,-23.15 L-67.74,-22.45 L-67.62,-21.51 L-67.37,-21.55 L-66.85,-21.05 L-66.65,-20.28 L-66.95,-19.85 L-67.34,-19.66 L-68.26,-20.17 L-68.52,-20.12 L-69.07,-19.42 L-69.24,-18.96 L-69.28,-18.39 L-69.78,-18.19 L-69.86,-17.42 L-70.66,-17.12 L-70.79,-16.87 L-71.50,-17.57 L-72.31,-17.71 L-72.11,-17.15 L-72.39,-16.66 L-72.73,-16.51 L-72.45,-15.93 L-72.67,-15.10 L-73.05,-15.18 L-73.07,-14.80 L-73.38,-14.34 L-74.05,-14.20 L-74.04,-13.99 L-74.75,-13.29 L-75.14,-13.31 L-75.44,-13.75 L-75.82,-13.90 L-76.28,-12.64 L-76.84,-11.80 L-77.09,-11.82 L-77.00,-11.42 L-77.12,-10.70 L-76.98,-9.95 L-76.39,-9.59 L-76.27,-9.26 L-76.61,-9.02 L-77.50,-9.06 L-77.80,-8.66 L-78.68,-8.39 L-78.91,-8.10 L-78.68,-7.76 L-78.66,-6.61 L-78.83,-5.39 L-79.10,-4.87 L-78.47,-4.79 L-77.61,-4.98 L-77.51,-4.41 L-77.13,-3.95 L-77.69,-3.73 L-77.67,-3.27 L-77.07,-3.26 L-76.59,-2.85 L-76.98,-2.51 L-77.00,-2.03 L-76.72,-1.82 L-76.78,-1.78 L-76.84,-1.77 L-76.97,-1.27 L-77.29,-1.05 L-77.33,-1.05 L-77.96,-0.56 L-78.05,-0.09 L-78.64,0.15 L-79.10,0.59 L-79.12,0.77 L-78.16,1.18 L-77.93,1.43 L-77.86,1.70 L-77.47,1.31 L-77.11,1.41 L-77.00,1.11 L-76.62,0.98 L-76.28,0.49 L-76.13,0.59 L-75.57,0.20 L-75.22,0.25 L-75.15,-0.19 L-74.29,-0.37 L-74.17,-0.54 L-73.16,-0.97 L-73.10,-0.97 L-72.82,-1.04 L-72.79,-1.04 L-72.72,-1.04 L-72.03,-1.10 L-71.79,-1.27 L-70.49,-1.11 L-70.12,-1.28 L-69.01,-1.37 L-68.95,-1.38 L-68.33,-1.43 L-67.83,-0.91 L-67.28,-1.19 L-66.90,-1.12 L-66.51,-1.43 L-65.45,-1.49 L-65.21,-1.42 L-64.84,-1.68 L-64.64,-1.11 L-65.57,-0.31 L-65.93,-0.28 L-66.42,0.29 L-66.70,0.17 L-66.99,0.40 L-66.70,0.55 L-66.86,1.04 L-66.69,1.78 L-67.04,2.14 L-66.75,2.32 L-65.81,2.35 L-65.39,2.94 L-65.53,3.21 L-65.27,3.42 L-65.15,3.98 L-64.78,4.11 L-64.78,4.38 L-65.18,4.56 L-65.61,4.98 L-65.37,5.75 L-64.86,5.60 L-64.46,6.23 L-64.37,6.94 L-64.88,7.28 L-64.52,7.26 L-64.20,7.50 L-64.29,7.98 L-64.70,8.59 L-64.52,8.85 L-63.51,9.13 L-62.93,9.08 L-63.03,9.63 L-62.41,9.94 L-61.56,9.79 L-60.83,10.03 L-60.55,9.77 L-59.85,9.47 L-59.51,9.79 L-58.87,10.01 L-58.48,9.97 L-57.95,10.16 L-58.06,10.80 L-57.89,11.30 L-57.57,11.69 L-57.91,12.00 L-58.81,11.59 L-58.92,11.82 L-58.64,12.57 L-59.29,12.77 L-59.46,13.48 L-60.08,13.59 L-60.20,13.74 L-59.94,14.05 L-59.45,15.55 L-59.73,15.95 L-59.49,16.40 L-60.39,17.30 L-60.87,17.50 L-60.59,18.01 L-61.06,18.55 L-61.04,19.05 L-61.34,19.25 L-61.68,19.76 L-61.54,20.01 L-61.88,20.05 L-61.21,20.58 L-60.42,20.60 L-59.79,20.74 L-59.30,20.69 L-58.38,20.38 L-58.07,20.70 L-57.58,20.55 L-57.41,20.71 L-57.38,20.66 L-56.67,20.69 L-56.17,21.05 L-55.46,21.04 L-54.33,21.47 L-54.31,21.05 L-53.24,21.21 L-53.32,21.63 L-52.95,22.08 L-53.14,22.67 L-53.37,22.80 L-53.54,23.74 L-53.04,25.02 L-52.43,25.39 L-51.96,25.03 L-51.56,25.06 L-51.16,25.46 L-51.81,26.31 L-51.65,26.53 L-51.56,27.20 L-51.17,27.43 L-51.00,27.07 L-50.77,27.14 L-50.46,27.61 L-49.79,27.49 L-49.25,26.93 L-48.32,26.89 L-47.84,27.69 L-47.37,27.56 L-46.82,27.77 L-45.63,27.13 L-45.22,27.04 L-44.98,26.64 L-44.60,26.47 L-44.43,26.05 L-43.98,25.77 L-43.74,25.36 L-43.46,25.25 L-43.43,25.22 L-43.04,25.12 L-43.03,25.13 L-42.21,24.98 L-41.42,24.26 L-41.06,24.28 L-41.18,24.56 L-41.13,25.16 L-40.75,25.40 L-40.58,26.26 L-40.81,26.59 L-40.15,26.62 L-40.14,27.15 L-39.98,27.25 L-40.32,27.53 L-40.30,28.06 L-40.86,28.23 L-40.42,29.05 L-39.77,29.40 L-39.76,29.69 L-40.02,30.14 L-39.29,30.75 L-38.26,30.24 L-37.72,30.22 L-36.73,29.95 L-36.00,30.15 L-36.13,30.61 L-35.95,30.82 L-35.25,30.57 L-34.92,31.10 L-34.27,31.09 L-33.95,30.43 L-33.53,30.46 L-33.54,29.94 L-33.98,29.58 L-34.47,29.46 L-34.64,29.02 L-34.43,28.23 L-34.52,27.43 L-34.19,27.10 L-34.37,26.83 L-34.38,26.32 L-33.85,26.40 L-33.59,25.97 L-33.81,25.67 L-34.11,25.71 L-34.24,24.89 L-34.45,24.73 L-34.20,23.61 L-34.53,23.47 L-34.58,23.15 L-34.96,22.91 L-34.94,22.45 L-35.31,22.50 L-35.95,22.14 L-35.74,21.72 L-36.29,20.53 L-35.98,20.35 L-36.05,20.03 L-36.57,19.19 L-36.39,18.85 L-35.74,18.70 L-35.26,17.72 L-35.50,17.42 L-35.25,16.60 L-34.79,16.57 L-34.17,16.26 L-33.64,16.80 L-33.65,17.13 L-33.23,17.54 L-32.82,17.59 L-32.76,17.02 L-32.01,17.12 L-31.29,16.79 L-30.39,17.09 L-30.24,17.45 L-29.88,17.09 L-28.92,17.21 L-29.07,16.80 L-28.36,15.74 L-28.00,15.64 L-27.50,14.92 L-27.71,14.37 L-27.16,14.16 L-26.91,13.46 L-26.37,13.34 L-25.94,13.67 L-25.74,14.14 L-25.35,13.81 L-24.82,14.28 L-24.49,14.15 L-23.30,15.02 L-23.06,14.99 L-22.46,15.38 L-22.33,15.97 L-21.92,16.52 L-21.33,16.57 L-20.87,16.97 L-20.33,16.83 L-20.44,16.46 L-19.26,15.69 L-19.49,15.35 L-19.12,14.72 L-18.86,14.76 L-18.20,14.38 L-18.14,13.80 L-17.80,13.30 L-17.78,12.98 L-17.22,13.12 L-16.53,13.57 L-16.58,14.18 L-16.35,14.60 L-15.81,15.23 L-15.59,15.32 L-15.05,14.51 L-15.19,14.14 L-14.40,13.11 L-13.36,14.05 L-13.33,14.17 L-13.08,14.28 L-12.46,15.07 L-12.05,15.41 L-11.92,15.61 L-11.73,15.62 L-10.98,16.31 L-10.51,16.14 L-10.51,15.51 L-10.38,15.31 L-10.15,14.40 L-10.13,13.84 L-9.66,13.40 L-9.37,12.97 L-8.24,12.77 L-7.84,12.60 L-7.71,12.75 L-7.89,13.35 L-7.72,13.73 L-7.19,13.84 L-6.63,14.26 L-6.14,13.77 L-5.33,13.34 L-5.02,12.90 L-4.30,12.55 L-3.47,12.87 L-2.80,12.78 L-2.85,12.49 L-2.56,12.38 L-2.44,12.04 L-1.65,11.68 L-1.50,11.19 L-1.92,10.53 L-2.10,9.68 L-1.35,9.53 L-1.27,9.09 L-0.95,8.96 L-0.56,9.22 L-0.46,8.82 L0.96,8.04 L1.26,8.18 L1.90,7.84 L2.49,8.00 L2.72,7.41 L3.41,6.63 L3.71,6.93 L3.91,7.42 L4.37,7.79 L4.68,7.69 L5.28,8.67 L5.72,8.87 L5.54,8.32 L5.90,8.07 L6.25,7.47 L6.84,7.10 L7.38,7.31 L7.32,6.92 L6.72,6.47 L7.38,6.50 L8.00,5.86 L8.50,5.78 L8.60,5.35 L8.99,5.13 L9.41,5.15 L9.63,5.43 L9.88,5.33 L10.41,5.54 L10.55,6.00 L10.97,5.60 L11.31,5.48 L11.46,5.17 L12.05,4.67 L11.83,4.28 L12.13,3.62 L12.22,2.98 L12.00,2.20 L12.59,1.88 L12.38,1.48 L12.59,1.29 L12.22,1.16 L11.91,0.44 L11.51,-0.02 L11.57,-0.23 L11.12,-0.59 L11.08,-1.01 L10.67,-1.12 L10.53,-1.35 L10.17,-1.24 L9.70,-1.37 L9.52,-1.12 L9.58,-0.79 L9.41,-0.47 L9.07,-0.65 L8.88,-0.37 L8.40,-0.29 L8.46,-0.60 L8.07,-0.84 L7.79,-0.68 L7.42,-0.76 L6.84,-0.39 L6.62,-1.42 L6.26,-1.54 L5.62,-1.45 L5.19,-0.22 L4.27,-0.51 L4.15,-0.74 L3.50,-1.06 L3.36,-1.30 L2.86,-1.04 L3.07,-0.85 L2.72,-0.70 L2.09,-1.18 L1.90,-1.85 L2.40,-1.84 L2.54,-2.31 L2.25,-2.37 L1.71,-3.18 L2.05,-3.59 L1.96,-3.82 L1.44,-4.14 L1.15,-4.09 L1.10,-4.56 L0.42,-4.85 L-0.24,-4.53 L-0.77,-4.52 L-0.94,-4.68 L-1.76,-4.90 L-2.31,-4.87 L-2.51,-5.05 L-2.69,-4.78 L-3.04,-4.85 L-3.17,-4.61 L-2.98,-3.74 L-3.11,-3.53 L-3.82,-4.05 L-4.14,-4.15 L-3.94,-4.38 L-4.08,-4.64 L-4.51,-4.67 L-4.79,-5.69 L-5.10,-5.87 L-5.43,-7.16 L-5.00,-8.01 L-4.87,-8.28 L-4.90,-8.91 L-4.40,-9.56 L-3.88,-9.89 L-3.58,-10.56 L-3.06,-10.90 L-3.36,-11.53 L-4.05,-11.60 L-3.35,-11.80 L-3.25,-12.28 L-2.86,-12.77 L-2.95,-13.07 L-2.63,-13.28 L-2.12,-12.73 L-1.90,-12.80 L-2.07,-13.39 L-1.86,-13.51 L-1.97,-13.81 L-2.82,-13.86 L-3.31,-14.17 L-3.84,-14.17 L-3.77,-14.83 L-4.09,-14.92 L-4.61,-15.34 L-4.86,-15.31 L-4.72,-16.67 L-5.06,-16.69 L-5.49,-16.34 L-5.85,-16.34 L-6.01,-16.09 L-6.18,-16.39 L-6.00,-16.62 L-6.08,-17.22 L-6.49,-17.44 L-7.09,-17.47 L-7.33,-18.01 L-7.13,-19.24 L-6.69,-18.91 L-6.40,-19.25 L-6.13,-20.13 L-5.94,-20.42 L-6.23,-20.87 L-5.97,-21.06 L-5.63,-21.95 L-5.74,-22.79 L-5.32,-22.62 L-5.02,-23.10 L-5.12,-23.66 L-4.80,-24.33 L-4.87,-24.62 L-4.34,-25.32 L-3.63,-25.52 L-3.37,-25.97 L-3.58,-26.19 L-3.56,-26.59 L-3.92,-26.79 L-3.85,-27.07 L-4.27,-27.54 L-4.57,-27.58 L-4.47,-28.06 L-4.72,-28.30 L-5.44,-28.18 L-5.75,-28.43 L-5.66,-28.89 L-6.12,-29.59 L-6.40,-29.34 L-6.87,-28.63 L-7.29,-28.54 L-7.70,-28.77 L-7.77,-28.59 L-8.26,-28.62 L-8.91,-28.91 L-9.33,-28.81 L-9.89,-28.11 L-9.90,-27.47 L-10.52,-27.44 L-11.11,-27.55 L-12.03,-27.45 L-12.52,-27.64 L-12.56,-27.88 L-13.12,-28.24 L-13.27,-28.66 L-13.16,-29.38 L-13.01,-29.67 L-13.52,-29.96 L-13.73,-30.53 L-13.55,-31.14 L-12.95,-31.39 L-13.12,-31.74 L-12.99,-32.23 L-13.22,-32.37 L-13.45,-32.97 L-13.73,-33.30 L-14.05,-33.33 L-14.60,-32.84 L-14.59,-33.15 L-14.83,-33.44 L-14.69,-33.63 L-14.21,-33.48 L-14.29,-33.78 L-14.63,-33.82 L-14.49,-34.08 L-13.83,-34.14 L-13.27,-35.06 L-12.71,-35.50 L-12.72,-35.66 L-12.03,-35.84 L-11.94,-36.38 L-11.63,-36.56 L-11.61,-36.97 L-11.33,-37.61 L-11.07,-37.41 L-10.45,-37.44 L-10.43,-36.95 L-9.72,-36.37 L-9.41,-36.45 L-8.78,-35.64 L-8.38,-36.01 L-7.98,-35.95 L-7.99,-36.44 L-7.48,-36.85 L-7.35,-37.21 L-6.77,-37.87 L-5.66,-37.28 L-5.35,-37.29 L-4.90,-36.34 L-4.57,-36.39 L-4.14,-36.11 L-2.63,-36.54 L-2.45,-36.23 L-1.88,-36.62 L-1.54,-36.39 L-1.60,-36.03 L-1.39,-35.94 L-0.94,-36.33 L0.08,-36.90 L0.69,-37.33 L1.25,-37.33 L1.92,-37.05 L1.90,-36.77 L2.43,-37.53 L2.45,-38.10 L2.72,-38.38 L2.43,-38.73 L2.68,-39.12 L3.19,-39.44 L3.10,-39.66 L3.23,-40.45 Z"/>
        <path d="M163.48,16.97 L164.26,17.33 L164.82,17.84 L165.57,19.15 L165.77,20.11 L165.79,21.06 L165.68,21.43 L165.86,21.97 L166.22,22.58 L166.65,22.71 L167.06,22.62 L167.83,23.06 L168.03,22.91 L167.96,21.96 L168.40,21.42 L168.45,20.84 L168.35,20.41 L168.47,18.49 L169.18,16.02 L169.53,15.42 L169.72,14.69 L170.20,14.48 L171.18,13.90 L171.60,13.38 L171.89,12.66 L172.30,12.22 L172.81,11.47 L173.13,10.77 L173.29,9.96 L173.70,9.76 L173.93,9.39 L173.76,8.74 L174.03,7.92 L174.45,7.36 L174.64,6.30 L174.89,5.61 L174.91,5.00 L175.59,2.58 L175.95,0.83 L176.36,-0.11 L176.15,-0.73 L176.19,-1.10 L176.55,-1.49 L176.67,-1.93 L177.94,-3.73 L178.12,-4.65 L178.56,-5.26 L178.75,-5.81 L178.82,-6.77 L178.51,-7.36 L178.28,-8.04 L178.32,-9.16 L179.25,-10.27 L180.09,-10.95 L179.76,-11.28 L179.40,-11.29 L179.08,-12.45 L178.29,-12.42 L177.65,-12.69 L177.26,-12.71 L176.86,-13.03 L176.78,-13.41 L176.31,-13.58 L175.97,-14.15 L175.57,-14.31 L175.04,-14.30 L174.08,-13.89 L173.74,-13.54 L173.31,-12.68 L172.75,-12.47 L171.59,-12.33 L170.78,-11.79 L170.45,-11.76 L169.63,-11.38 L169.47,-10.87 L168.96,-10.29 L168.47,-9.47 L168.23,-8.41 L167.51,-7.54 L166.85,-7.21 L166.08,-6.58 L165.59,-5.38 L165.02,-4.75 L164.57,-4.07 L164.30,-3.43 L163.77,-2.67 L163.56,-2.02 L162.93,-1.32 L162.13,0.14 L161.72,0.76 L161.39,1.71 L160.63,2.07 L159.86,3.23 L159.78,4.47 L160.07,5.38 L159.92,7.16 L159.64,7.70 L158.98,10.08 L159.09,10.35 L160.19,10.87 L160.36,12.01 L160.90,13.92 L161.69,15.68 L161.93,15.99 L163.48,16.97 Z M206.88,-20.80 L207.32,-20.86 L207.14,-21.22 L206.88,-20.80 Z M195.25,-18.86 L195.52,-18.71 L195.93,-18.83 L195.97,-19.18 L195.61,-19.33 L195.26,-19.12 L195.25,-18.86 Z M155.03,4.87 L155.51,4.91 L155.37,4.33 L154.65,4.29 L154.56,4.60 L154.19,4.50 L154.14,5.09 L154.32,5.40 L154.64,5.38 L155.03,4.87 Z M197.61,-20.91 L198.03,-20.93 L197.85,-21.20 L197.61,-20.91 Z M153.55,4.06 L153.55,4.58 L153.19,4.81 L153.69,4.77 L153.75,4.06 L153.55,4.06 Z M153.46,6.66 L153.43,7.06 L153.66,7.06 L153.46,6.66 Z M154.09,3.61 L154.63,4.12 L154.70,3.67 L154.40,3.51 L154.09,3.61 Z M180.66,-17.75 L180.88,-17.60 L180.94,-17.91 L180.66,-17.75 Z M174.33,14.40 L174.40,14.77 L174.81,14.90 L174.82,14.41 L174.33,14.40 Z M174.78,20.84 L174.74,21.26 L175.03,21.55 L175.67,21.84 L175.78,21.54 L175.46,21.38 L175.47,20.87 L174.78,20.84 Z M180.99,-16.39 L181.13,-16.02 L181.25,-16.34 L180.99,-16.39 Z M152.65,8.52 L152.80,8.85 L152.99,8.52 L152.65,8.52 Z M162.54,18.22 L162.97,18.05 L162.84,17.91 L162.54,18.22 Z"/>
        <path d="M95.58,16.29 L95.25,16.43 L95.00,16.80 L94.38,17.22 L94.40,17.77 L94.73,17.91 L94.78,17.86 L95.03,17.79 L95.52,17.99 L94.77,18.53 L94.92,18.28 L94.16,18.42 L94.07,18.82 L93.58,19.28 L93.65,19.70 L94.18,19.43 L94.56,19.55 L95.04,19.28 L95.21,19.54 L95.52,19.29 L95.29,19.18 L95.56,18.92 L95.61,18.51 L95.98,18.22 L96.52,18.29 L96.78,18.51 L96.52,18.82 L96.99,19.32 L97.37,19.25 L97.39,19.53 L98.06,19.60 L97.88,18.79 L98.02,18.57 L98.26,18.91 L98.56,18.90 L98.59,18.52 L98.59,18.52 L98.19,18.20 L98.24,17.57 L98.66,17.58 L98.66,17.58 L98.67,17.59 L98.67,17.59 L99.02,18.08 L99.42,17.84 L99.32,17.30 L99.54,17.07 L99.54,17.06 L99.22,17.03 L98.69,16.56 L98.19,17.03 L97.57,17.12 L97.42,16.88 L97.71,16.69 L97.92,16.93 L98.85,16.30 L98.52,16.36 L98.31,16.08 L98.04,15.88 L98.03,15.88 L98.00,15.81 L97.71,16.02 L97.71,15.90 L97.60,15.75 L97.00,15.69 L96.90,15.86 L96.25,15.96 L96.11,16.20 L95.58,16.29 Z M96.75,19.46 L96.55,19.18 L96.52,19.85 L96.88,19.85 L97.01,19.55 L96.75,19.46 Z M98.48,17.73 L98.57,18.07 L98.77,17.93 L98.48,17.72 L98.48,17.73 Z M98.63,17.63 L98.67,17.59 L98.67,17.59 L98.66,17.58 L98.66,17.58 L98.62,17.62 L98.63,17.62 L98.63,17.63 Z M98.48,17.76 L98.48,17.73 L98.48,17.72 L98.48,17.76 Z M98.59,18.52 L98.60,18.53 L98.59,18.51 L98.59,18.52 L98.59,18.52 Z M98.62,17.62 L98.63,17.63 L98.63,17.62 L98.62,17.62 Z M99.18,18.27 L99.19,18.26 L99.18,18.26 L99.18,18.27 Z M98.67,18.54 L98.68,18.54 L98.67,18.54 L98.67,18.54 Z"/>
        <path d="M90.52,20.61 L91.04,20.34 L90.75,19.66 L90.57,19.47 L90.35,19.50 L90.31,19.89 L90.52,20.23 L90.52,20.61 Z M90.86,19.59 L90.75,19.59 L90.75,19.66 L90.86,19.59 Z"/>
  </g>

  <!-- 九段线（红色虚线 SVG 无法直接虚线，使用 stroke-dasharray） -->
  <g fill="none" stroke="#DC2626" stroke-width="0.9" stroke-dasharray="3,3" opacity="0.8">
        <path d="M185.45,5.85 L188.42,-6.29 L188.42,-6.32 L188.41,-6.36 L188.39,-6.39 L188.37,-6.41 L188.34,-6.42 L188.31,-6.42 L188.27,-6.42 L188.25,-6.40 L188.22,-6.37 L188.21,-6.34 L185.25,5.80 L185.24,5.84 L185.25,5.87 L185.27,5.90 L185.29,5.92 L185.32,5.93 L185.36,5.94 L185.39,5.93 L185.42,5.91 L185.44,5.89 L185.45,5.85 Z M171.19,34.82 L179.00,25.20 L179.02,25.17 L179.03,25.14 L179.03,25.10 L179.01,25.07 L178.99,25.04 L178.96,25.03 L178.93,25.02 L178.90,25.02 L178.87,25.04 L178.84,25.06 L171.03,34.68 L171.01,34.71 L171.01,34.75 L171.01,34.78 L171.02,34.81 L171.04,34.84 L171.07,34.86 L171.10,34.86 L171.14,34.86 L171.17,34.85 L171.19,34.82 Z M153.21,65.36 L159.05,54.27 L159.06,54.23 L159.07,54.20 L159.06,54.17 L159.04,54.14 L159.01,54.12 L158.98,54.11 L158.95,54.11 L158.92,54.11 L158.89,54.13 L158.87,54.16 L153.02,65.26 L153.01,65.29 L153.01,65.32 L153.02,65.36 L153.03,65.38 L153.06,65.41 L153.09,65.42 L153.13,65.42 L153.16,65.41 L153.19,65.39 L153.21,65.36 Z M148.96,97.72 L148.96,86.78 L148.95,86.74 L148.94,86.71 L148.92,86.69 L148.89,86.67 L148.85,86.67 L148.82,86.67 L148.79,86.69 L148.77,86.71 L148.75,86.74 L148.75,86.78 L148.75,97.72 L148.74,98.08 L148.75,98.11 L148.76,98.14 L148.79,98.17 L148.81,98.18 L148.85,98.19 L148.88,98.19 L148.91,98.17 L148.93,98.15 L148.95,98.12 L148.95,98.08 L148.96,97.72 L148.96,97.72 Z M144.88,139.73 L143.17,142.72 L143.16,142.75 L143.15,142.79 L143.16,142.82 L143.18,142.85 L143.21,142.87 L143.24,142.88 L143.27,142.88 L143.30,142.88 L143.33,142.86 L143.35,142.83 L145.06,139.84 L145.07,139.82 L146.87,135.18 L146.87,135.17 L148.08,131.05 L148.08,131.01 L148.08,130.98 L148.06,130.95 L148.04,130.93 L148.01,130.91 L147.97,130.91 L147.94,130.91 L147.91,130.93 L147.89,130.95 L147.87,130.99 L146.67,135.11 L144.88,139.73 Z M111.61,183.84 L119.08,174.75 L119.10,174.72 L119.11,174.69 L119.10,174.66 L119.09,174.63 L119.07,174.60 L119.04,174.58 L119.01,174.57 L118.98,174.58 L118.95,174.59 L118.92,174.61 L111.45,183.70 L111.43,183.73 L111.42,183.76 L111.42,183.79 L111.44,183.83 L111.46,183.85 L111.49,183.87 L111.52,183.88 L111.55,183.87 L111.58,183.86 L111.61,183.84 Z M77.37,223.26 L71.86,224.54 L71.83,224.56 L71.81,224.58 L71.79,224.61 L71.78,224.64 L71.78,224.67 L71.79,224.71 L71.81,224.73 L71.84,224.75 L71.88,224.76 L71.91,224.76 L77.42,223.47 L77.43,223.47 L79.64,222.78 L79.65,222.77 L83.14,221.10 L83.17,221.08 L83.19,221.05 L83.20,221.02 L83.20,220.99 L83.19,220.95 L83.17,220.93 L83.15,220.90 L83.11,220.89 L83.08,220.89 L83.05,220.90 L79.57,222.57 L77.37,223.26 Z M34.49,195.38 L34.80,196.21 L34.82,196.24 L34.84,196.27 L34.87,196.28 L34.91,196.28 L34.94,196.28 L34.97,196.26 L34.99,196.23 L35.00,196.20 L35.01,196.17 L35.00,196.14 L34.69,195.31 L34.44,193.87 L34.03,190.48 L34.05,185.99 L34.32,184.63 L34.32,184.60 L34.31,184.57 L34.29,184.54 L34.26,184.52 L34.23,184.51 L34.20,184.50 L34.17,184.51 L34.14,184.53 L34.12,184.56 L34.11,184.59 L33.84,185.96 L33.83,185.98 L33.81,190.49 L33.81,190.50 L34.23,193.90 L34.23,193.90 L34.48,195.36 L34.49,195.38 Z M54.26,137.78 L53.49,139.04 L53.47,139.07 L53.47,139.10 L53.48,139.14 L53.50,139.17 L53.52,139.19 L53.55,139.20 L53.58,139.21 L53.62,139.20 L53.64,139.18 L53.67,139.16 L54.44,137.89 L54.44,137.88 L55.09,136.55 L55.09,136.55 L55.64,135.22 L55.64,135.20 L56.12,133.27 L56.12,133.25 L56.37,131.49 L56.38,131.47 L56.44,129.35 L56.44,129.34 L56.42,128.27 L56.41,128.24 L56.40,128.21 L56.37,128.18 L56.34,128.17 L56.31,128.16 L56.28,128.17 L56.25,128.19 L56.22,128.21 L56.21,128.24 L56.21,128.28 L56.23,129.35 L56.16,131.46 L55.92,133.22 L55.44,135.14 L54.90,136.46 L54.26,137.78 Z M51.09,95.66 L51.26,96.49 L51.27,96.52 L51.29,96.55 L51.32,96.57 L51.35,96.58 L51.39,96.58 L51.42,96.56 L51.44,96.54 L51.46,96.51 L51.47,96.48 L51.47,96.45 L51.30,95.62 L51.30,95.61 L50.67,93.25 L50.67,93.23 L49.62,90.81 L49.62,90.79 L48.57,89.03 L48.57,89.03 L47.94,88.10 L47.94,88.09 L45.58,84.99 L45.56,84.97 L45.53,84.95 L45.49,84.95 L45.46,84.96 L45.43,84.97 L45.41,85.00 L45.40,85.03 L45.39,85.06 L45.40,85.10 L45.41,85.13 L47.77,88.22 L48.40,89.15 L49.43,90.90 L50.47,93.31 L51.09,95.66 Z"/>
  </g>

  <!-- 岛屿标记 -->
  <g>
    <circle cx="124.9" cy="36.0" r="1.8" fill="#DC2626"/><text x="127.9" y="40.0" font-size="5" fill="#475569" font-family="sans-serif">东沙群岛</text>
    <circle cx="77.3" cy="78.5" r="1.8" fill="#DC2626"/><text x="80.3" y="82.5" font-size="5" fill="#475569" font-family="sans-serif">西沙群岛</text>
    <circle cx="100.6" cy="92.7" r="1.8" fill="#DC2626"/><text x="103.6" y="96.7" font-size="5" fill="#475569" font-family="sans-serif">中沙群岛</text>
    <circle cx="98.5" cy="169.1" r="1.8" fill="#DC2626"/><text x="101.5" y="173.1" font-size="5" fill="#475569" font-family="sans-serif">南沙群岛</text>
    <circle cx="47.6" cy="52.4" r="1.8" fill="#DC2626"/><text x="50.6" y="56.4" font-size="5" fill="#475569" font-family="sans-serif">海南岛</text>
    <circle cx="135.5" cy="97.1" r="1.8" fill="#DC2626"/><text x="138.5" y="101.1" font-size="5" fill="#475569" font-family="sans-serif">黄岩岛</text>
    <circle cx="77.3" cy="218.5" r="1.8" fill="#DC2626"/><text x="80.3" y="222.5" font-size="5" fill="#475569" font-family="sans-serif">曾母暗沙</text>
  </g>

  <!-- 边框 -->
  <rect width="180" height="240" fill="none" stroke="#475569" stroke-width="1.5"/>
</svg>